<svg id="Grupo_1099830" data-name="Grupo 1099830" xmlns="http://www.w3.org/2000/svg" xmlns:xlink="http://www.w3.org/1999/xlink" width="67.003" height="65.833" viewBox="0 0 67.003 65.833">
  <defs>
    <clipPath id="clip-path">
      <rect id="Rectángulo_401073" data-name="Rectángulo 401073" width="67.003" height="65.833" fill="#445130"/>
    </clipPath>
  </defs>
  <g id="Grupo_1099283" data-name="Grupo 1099283" transform="translate(0 0)" clip-path="url(#clip-path)">
    <path id="Trazado_873206" data-name="Trazado 873206" d="M13.009,7.867,0,.725C6.848-1.7,12.627,1.859,20.682,13.017c6.253-2.44,11.577-.333,16.867,3.487a23.177,23.177,0,0,0,9.42,3.549c12.169,2.111,20.7,12.16,19.993,24.044-.7,11.751-9.8,21.074-21.169,21.693-12.813.7-21.816-7.227-24.708-19.757C19.554,39.4,15.55,33.323,12.462,27.1c-.361-.726-2-.872-3.075-1.18C3.663,24.277-.912,19.681.259,15.857c1.5-4.905,5.946-5.911,10.541-6.137a10.453,10.453,0,0,0,1.65-.343q.28-.754.559-1.511M44.179,62.573A20.061,20.061,0,0,0,63.628,45c1.207-8.948-5.172-17.988-14.2-21.019A178.388,178.388,0,0,1,31.268,16.5c-4.925-2.285-8.989-1.264-12.352,2.527-3.235,3.645-3.433,7.472-.836,12.013a62.4,62.4,0,0,1,6.484,15.5c2.337,9.3,10.075,16.1,19.616,16.03M16.857,16.734c-3.778-4.1-7.248-4.666-10.913-2.369-.986.617-2.07,3.117-1.788,3.391,1.919,1.86,4.46,4.9,6.281,4.584,2.377-.414,4.274-3.582,6.421-5.606" transform="translate(0 0)" fill="#445130"/>
    <path id="Trazado_873209" data-name="Trazado 873209" d="M37.21,25.5c6.548.2,12.121,6.265,11.8,11.889-.22,3.827-2.357,5.359-6.021,5.23-5.418-.188-11.108-5.871-11.059-11.228.038-3.973,2.237-5.858,5.282-5.891" transform="translate(4.646 3.711)" fill="#445130"/>
    <path id="Trazado_873210" data-name="Trazado 873210" d="M53.638,50.4c-1.488,1.368-2.774,3.11-4.5,4.04-9.635,5.2-20.994-.167-24.052-10.717-1.714-5.909-4.5-11.5-6.72-17.27-.357-.927-.294-2.015-.641-4.69,6.209,5.123,9.02,10.5,10.13,16.681,2.546,14.2,10.185,17.893,23.008,10.9a4.643,4.643,0,0,1,1.627-.2L53.638,50.4" transform="translate(2.579 3.167)" fill="#445130"/>
  </g>
</svg>
