<svg xmlns="http://www.w3.org/2000/svg" width="26.563" height="22.922" viewBox="0 0 26.563 22.922">
  <g id="Grupo_1102965" data-name="Grupo 1102965" transform="translate(-842.052 -2090.694)">
    <path id="Trazado_1262218" data-name="Trazado 1262218" d="M1.719,34V11.25H9.891q4.391,0,6.68,1.609a5.355,5.355,0,0,1,2.289,4.672,5.413,5.413,0,0,1-.812,3.016,4.735,4.735,0,0,1-2.391,1.844,4.8,4.8,0,0,1,2.734,1.75,5.088,5.088,0,0,1,.953,3.125,6.024,6.024,0,0,1-2.117,5.023Q15.109,33.969,10.953,34ZM7.2,24.328v5.453H10.8a3.418,3.418,0,0,0,2.281-.68,2.379,2.379,0,0,0,.8-1.914,2.522,2.522,0,0,0-2.828-2.859Zm0-3.594h2.859a4.072,4.072,0,0,0,2.563-.656,2.325,2.325,0,0,0,.766-1.891,2.442,2.442,0,0,0-.828-2.07,4.443,4.443,0,0,0-2.672-.633H7.2Zm18.172,8.156a3,3,0,0,1,2.078.742,2.59,2.59,0,0,1,0,3.8,3.278,3.278,0,0,1-4.164-.008,2.589,2.589,0,0,1,0-3.781A2.972,2.972,0,0,1,25.375,28.891Z" transform="translate(840.333 2079.444)" fill="#fff"/>
  </g>
</svg>
