<svg xmlns="http://www.w3.org/2000/svg" xmlns:xlink="http://www.w3.org/1999/xlink" width="916.08" height="722.81" viewBox="0 0 916.08 722.81">
  <defs>
    <clipPath id="clip-path">
      <rect id="Rectángulo_401212" data-name="Rectángulo 401212" width="902.49" height="722.81" fill="none"/>
    </clipPath>
    <clipPath id="clip-path-2">
      <rect id="Rectángulo_401213" data-name="Rectángulo 401213" width="46.512" height="31.68" fill="none"/>
    </clipPath>
    <clipPath id="clip-path-3">
      <rect id="Rectángulo_401215" data-name="Rectángulo 401215" width="43.914" height="46.302" fill="#12263f"/>
    </clipPath>
    <clipPath id="clip-path-5">
      <rect id="Rectángulo_401221" data-name="Rectángulo 401221" width="48.474" height="48.653" fill="none"/>
    </clipPath>
    <clipPath id="clip-path-6">
      <rect id="Rectángulo_401222" data-name="Rectángulo 401222" width="35.556" height="53.819" fill="none"/>
    </clipPath>
    <clipPath id="clip-path-7">
      <rect id="Rectángulo_401224" data-name="Rectángulo 401224" width="44.547" height="44.707" fill="none"/>
    </clipPath>
  </defs>
  <g id="Grupo_1102966" data-name="Grupo 1102966" transform="translate(-341.96 -2415)">
    <g id="Grupo_1099361" data-name="Grupo 1099361" transform="translate(341.96 2415)">
      <g id="Grupo_1099360" data-name="Grupo 1099360" clip-path="url(#clip-path)">
        <path id="Trazado_873386" data-name="Trazado 873386" d="M340.17,170.33a169.835,169.835,0,1,1-339.67,0H59.37a111.076,111.076,0,0,0,221.94,0Z" fill="#0a4666"/>
        <path id="Trazado_873387" data-name="Trazado 873387" d="M562.22,170.33c.07-1.61.11-3.23.11-4.86a111.08,111.08,0,0,0-222.16,0c0,1.63.04,3.25.11,4.86H281.42A169.8,169.8,0,0,1,450.95.5C543.92.34,620.23,75.78,621.07,168.75c0,.52.01,1.06.01,1.58Z" fill="#aaca79"/>
        <path id="Trazado_873388" data-name="Trazado 873388" d="M621.08,170.33A169.62,169.62,0,0,1,550.31,308.3q-5.73,4.125-11.82,7.78c-22.16,13.29-48.25,18.12-73.91,15.04a112.8,112.8,0,0,0-13.33-.79A111,111,0,0,0,340.17,441.4c0,1.63.04,3.25.11,4.86a110.277,110.277,0,0,0,1.04,11.14H281.78q-.345-5.205-.36-10.5A169.788,169.788,0,0,1,447.44,276.48c1.27.05,2.54.07,3.81.07s2.54-.02,3.81-.07A111.066,111.066,0,0,0,562.22,170.33Z" fill="#e5efd6"/>
        <path id="Trazado_873389" data-name="Trazado 873389" d="M620.71,457.4a169.831,169.831,0,0,1-338.93,0h59.54a111.09,111.09,0,0,0,219.86,0Z" fill="#a6cdec"/>
        <path id="Trazado_873390" data-name="Trazado 873390" d="M901.99,451.12c0,2.1-.04,4.2-.12,6.28H842.69a111.572,111.572,0,0,0,.54-12.72c-.83-59.83-49.66-108.66-109.49-109.49A111.08,111.08,0,0,0,621.08,446.26c0,3.74-.12,7.46-.37,11.14H561.18a110.259,110.259,0,0,0,1.04-11.14h.18a169.829,169.829,0,0,1,339.52,0C901.97,447.87,901.99,449.49,901.99,451.12Z" fill="#083851"/>
        <path id="Trazado_873391" data-name="Trazado 873391" d="M901.87,457.4a169.639,169.639,0,0,1-70.74,131.75q-5.8,4.17-11.96,7.85c-22.14,13.24-48.16,18.07-73.77,15.02a113.429,113.429,0,0,0-13.24-.78A111,111,0,0,0,621.08,722.31H562.4A169.811,169.811,0,0,1,732.16,557.34,111.094,111.094,0,0,0,842.69,457.4Z" fill="#12263f"/>
        <path id="Trazado_873393" data-name="Trazado 873393" d="M353.361,179.13a43.166,43.166,0,1,1-43.167-43.167,43.167,43.167,0,0,1,43.167,43.167" fill="#63a1d4"/>
        <path id="Trazado_873394" data-name="Trazado 873394" d="M630.08,179.13a43.167,43.167,0,1,1-43.167-43.167A43.167,43.167,0,0,1,630.08,179.13" fill="#0a4666"/>
        <path id="Trazado_873395" data-name="Trazado 873395" d="M353.361,457.4a43.166,43.166,0,1,1-43.167-43.167A43.167,43.167,0,0,1,353.361,457.4" fill="#445130"/>
        <path id="Trazado_873396" data-name="Trazado 873396" d="M630.08,457.4a43.167,43.167,0,1,1-43.167-43.167A43.167,43.167,0,0,1,630.08,457.4" fill="#c2f4f8"/>
      </g>
    </g>
    <path id="Trazado_873397" data-name="Trazado 873397" d="M630.08,457.4a43.167,43.167,0,1,1-43.167-43.167A43.167,43.167,0,0,1,630.08,457.4" transform="translate(627.96 2415)" fill="#3f654f"/>
    <g id="Grupo_1099363" data-name="Grupo 1099363" transform="translate(1191.617 2856.561)">
      <g id="Grupo_1099362" data-name="Grupo 1099362" transform="translate(0 0)" clip-path="url(#clip-path-2)">
        <path id="Trazado_873398" data-name="Trazado 873398" d="M16.305,16.338a8.169,8.169,0,1,1,8.169-8.169,8.178,8.178,0,0,1-8.169,8.169m0-12.364A4.195,4.195,0,1,0,20.5,8.169a4.2,4.2,0,0,0-4.195-4.195" transform="translate(-1.669 0)" fill="#fff"/>
        <path id="Trazado_873399" data-name="Trazado 873399" d="M41.992,16.747a7.378,7.378,0,1,1,7.378-7.377,7.386,7.386,0,0,1-7.378,7.377m0-10.781a3.4,3.4,0,1,0,3.4,3.4,3.408,3.408,0,0,0-3.4-3.4" transform="translate(-7.1 -0.408)" fill="#fff"/>
        <path id="Trazado_873400" data-name="Trazado 873400" d="M51,34.766H38.2V30.792H49.3a3.368,3.368,0,0,0,.952-2.261,2.622,2.622,0,0,0-.8-1.54H43.362l-5.71-1.632,1.091-3.822,5.176,1.479h6.855l.5.334a6.937,6.937,0,0,1,2.93,4.768c.206,2.076-.678,4.117-2.628,6.067Z" transform="translate(-7.723 -4.417)" fill="#fff"/>
        <path id="Trazado_873401" data-name="Trazado 873401" d="M29.273,36.077H25.3a10.662,10.662,0,1,0-21.324,0H0a14.636,14.636,0,1,1,29.273,0" transform="translate(0 -4.398)" fill="#fff"/>
      </g>
    </g>
    <g id="Grupo_1099368" data-name="Grupo 1099368" transform="translate(907.96 2848.074)">
      <g id="Grupo_1099365" data-name="Grupo 1099365" transform="translate(0 0)">
        <g id="Grupo_1099364" data-name="Grupo 1099364" clip-path="url(#clip-path-3)">
          <path id="Rectángulo_401214" data-name="Rectángulo 401214" d="M-2-2H40.545V18.3H-2ZM38.57-.024H-.024V16.322H38.57Z" transform="translate(2.684 27.32)" fill="#12263f"/>
          <path id="Trazado_873402" data-name="Trazado 873402" d="M21.609,40.208.664,21.4l1.32-1.47,19.625,17.62,19.625-17.62,1.32,1.47Z" transform="translate(0.348 -2.757)" fill="#12263f"/>
        </g>
      </g>
      <path id="Línea_589" data-name="Línea 589" d="M14.4-.024H0V-2H14.4Z" transform="translate(15.413 21.513)" fill="#12263f"/>
      <path id="Línea_590" data-name="Línea 590" d="M14.4-.024H0V-2H14.4Z" transform="translate(15.413 16.632)" fill="#12263f"/>
      <g id="Grupo_1099367" data-name="Grupo 1099367" transform="translate(0 0)">
        <g id="Grupo_1099366" data-name="Grupo 1099366" clip-path="url(#clip-path-3)">
          <path id="Trazado_873403" data-name="Trazado 873403" d="M42.545,27.636H0V15.687A9.433,9.433,0,0,1,9.44,6.248H33.105a9.432,9.432,0,0,1,9.44,9.439ZM1.976,25.66H40.57V15.687a7.472,7.472,0,0,0-7.464-7.464H9.44a7.472,7.472,0,0,0-7.464,7.464Z" transform="translate(0.684 -0.339)" fill="#12263f"/>
          <path id="Trazado_873404" data-name="Trazado 873404" d="M32.1,6.913,25,2.348,17.9,6.913,16.831,5.251,25,0l8.169,5.251Z" transform="translate(-2.388 0.814)" fill="#12263f"/>
        </g>
      </g>
    </g>
    <g id="Grupo_1099370" data-name="Grupo 1099370" transform="translate(627.96 2849.074)">
      <g id="Grupo_1099369" data-name="Grupo 1099369" transform="translate(0 0)" clip-path="url(#clip-path-5)">
        <path id="Trazado_873405" data-name="Trazado 873405" d="M25.434,45.13A19.826,19.826,0,1,1,45.259,25.3,19.848,19.848,0,0,1,25.434,45.13m0-34.721a14.9,14.9,0,1,0,14.9,14.9,14.912,14.912,0,0,0-14.9-14.9" transform="translate(-1.001 -0.977)" fill="#fff"/>
        <path id="Trazado_873406" data-name="Trazado 873406" d="M31.613,28.394A2.893,2.893,0,1,1,28.72,25.5a2.894,2.894,0,0,1,2.894,2.894" transform="translate(-4.608 -4.549)" fill="#fff"/>
        <rect id="Rectángulo_401217" data-name="Rectángulo 401217" width="13.932" height="4.93" transform="translate(0 21.38)" fill="#fff"/>
        <rect id="Rectángulo_401218" data-name="Rectángulo 401218" width="13.932" height="4.93" transform="translate(34.542 21.38)" fill="#fff"/>
        <rect id="Rectángulo_401219" data-name="Rectángulo 401219" width="4.93" height="13.932" transform="translate(21.647 0)" fill="#fff"/>
        <rect id="Rectángulo_401220" data-name="Rectángulo 401220" width="4.93" height="13.932" transform="translate(21.647 34.721)" fill="#fff"/>
      </g>
    </g>
    <g id="Grupo_1099372" data-name="Grupo 1099372" transform="translate(911.714 2567.818)">
      <g id="Grupo_1099371" data-name="Grupo 1099371" transform="translate(0 0)" clip-path="url(#clip-path-6)">
        <path id="Trazado_873407" data-name="Trazado 873407" d="M10.137,39.3c-.881-3.4-2.758-6.925-6.476-12.157a20.187,20.187,0,0,1-2.7-5.279,18.175,18.175,0,0,1-.96-5.9A15.013,15.013,0,0,1,1.524,9.274a15.273,15.273,0,0,1,4.033-4.94,19.4,19.4,0,0,1,24.44,0,15.272,15.272,0,0,1,4.034,4.941,15.007,15.007,0,0,1,1.523,6.689,18.16,18.16,0,0,1-.96,5.9,20.2,20.2,0,0,1-2.7,5.279c-3.72,5.234-5.6,8.756-6.476,12.157l-3.68-.952c1-3.882,3.049-7.766,7.057-13.406a15.488,15.488,0,0,0,2.957-8.952,10.645,10.645,0,0,0-4.168-8.716,15.7,15.7,0,0,0-19.616,0A10.648,10.648,0,0,0,3.8,15.987a15.49,15.49,0,0,0,2.958,8.952c4.007,5.638,6.051,9.522,7.057,13.406Z" transform="translate(0 0)" fill="#fff"/>
        <path id="Trazado_873408" data-name="Trazado 873408" d="M11.466,18.179l-3.573-1.3a15.011,15.011,0,0,1,3.679-5.791,15.263,15.263,0,0,1,5.456-3.3l1.287,3.576A10.643,10.643,0,0,0,11.466,18.179Z" transform="translate(-0.393 -0.388)" fill="#fff"/>
        <path id="Trazado_873409" data-name="Trazado 873409" d="M9.147,43.463H27.708V46.7a9.281,9.281,0,0,1-18.561,0Zm15.71,2.851H12V46.7a6.43,6.43,0,0,0,12.86,0Z" transform="translate(-0.455 -2.163)" fill="#fff"/>
      </g>
    </g>
    <g id="Grupo_1099374" data-name="Grupo 1099374" transform="translate(629.96 2572.578)">
      <g id="Grupo_1099373" data-name="Grupo 1099373" transform="translate(0 0)" clip-path="url(#clip-path-7)">
        <path id="Trazado_873410" data-name="Trazado 873410" d="M17.869,35.738A17.869,17.869,0,1,1,35.738,17.869,17.889,17.889,0,0,1,17.869,35.738m0-31.463A13.594,13.594,0,1,0,31.463,17.869,13.609,13.609,0,0,0,17.869,4.275" transform="translate(0 0)" fill="#fff"/>
        <rect id="Rectángulo_401223" data-name="Rectángulo 401223" width="4.275" height="15.97" transform="translate(30.231 33.414) rotate(-45)" fill="#fff"/>
      </g>
    </g>
    <path id="Trazado_1262219" data-name="Trazado 1262219" d="M8.164,21h-3.3V10.492l-3.242.947v-2.5l6.24-2.158h.3Zm6.377-3.193a1.874,1.874,0,0,1,1.3.464,1.619,1.619,0,0,1,0,2.373,2.049,2.049,0,0,1-2.6,0,1.618,1.618,0,0,1,0-2.363A1.858,1.858,0,0,1,14.541,17.807Zm13.906-3.145a8.817,8.817,0,0,1-3.511-1.7,3.256,3.256,0,0,1-1.1-2.5,3.439,3.439,0,0,1,1.343-2.778,5.337,5.337,0,0,1,3.491-1.1,5.825,5.825,0,0,1,2.612.566,4.3,4.3,0,0,1,1.777,1.563,4,4,0,0,1,.63,2.178H31.807a2.586,2.586,0,0,0-.82-2.026,3.343,3.343,0,0,0-2.314-.737,3.42,3.42,0,0,0-2.163.61,2.035,2.035,0,0,0-.776,1.694,1.831,1.831,0,0,0,.737,1.47,7.238,7.238,0,0,0,2.51,1.1,11.622,11.622,0,0,1,2.773,1.1,4.209,4.209,0,0,1,1.484,1.4,3.577,3.577,0,0,1,.483,1.885,3.322,3.322,0,0,1-1.348,2.769,5.746,5.746,0,0,1-3.6,1.04,6.683,6.683,0,0,1-2.734-.562A4.6,4.6,0,0,1,24.077,19.1a3.754,3.754,0,0,1-.688-2.217h1.885a2.449,2.449,0,0,0,.952,2.036,4.009,4.009,0,0,0,2.544.747,3.685,3.685,0,0,0,2.275-.605,1.967,1.967,0,0,0,.791-1.65A1.931,1.931,0,0,0,31.1,15.79,8.444,8.444,0,0,0,28.447,14.662ZM40.225,21.2a4.617,4.617,0,0,1-3.5-1.411,5.237,5.237,0,0,1-1.348-3.774v-.332a6.341,6.341,0,0,1,.6-2.808,4.685,4.685,0,0,1,1.68-1.934,4.223,4.223,0,0,1,2.339-.7A3.957,3.957,0,0,1,43.2,11.6a5.877,5.877,0,0,1,1.143,3.887v.752H37.188a3.756,3.756,0,0,0,.913,2.524,2.87,2.87,0,0,0,2.222.962,3.147,3.147,0,0,0,1.621-.391,4.073,4.073,0,0,0,1.162-1.035l1.1.859A4.437,4.437,0,0,1,40.225,21.2ZM40,11.723a2.41,2.41,0,0,0-1.836.8,3.868,3.868,0,0,0-.918,2.231h5.293v-.137a3.441,3.441,0,0,0-.742-2.134A2.269,2.269,0,0,0,40,11.723Zm6.006,3.906A6.21,6.21,0,0,1,47.148,11.7a3.939,3.939,0,0,1,6.045-.093l.088-1.172h1.65V20.746a4.3,4.3,0,0,1-1.216,3.232,4.487,4.487,0,0,1-3.267,1.182,5.435,5.435,0,0,1-2.236-.488,3.85,3.85,0,0,1-1.67-1.338l.938-1.084a3.533,3.533,0,0,0,2.842,1.436,2.768,2.768,0,0,0,2.056-.742,2.837,2.837,0,0,0,.737-2.09v-.908a3.713,3.713,0,0,1-2.959,1.25,3.609,3.609,0,0,1-3-1.494A6.529,6.529,0,0,1,46.006,15.629Zm1.816.205a4.738,4.738,0,0,0,.732,2.808,2.38,2.38,0,0,0,2.051,1.021,2.646,2.646,0,0,0,2.51-1.553V13.285a2.677,2.677,0,0,0-2.49-1.514A2.4,2.4,0,0,0,48.564,12.8,5.16,5.16,0,0,0,47.822,15.834Zm11.533-5.4.049,1.172a3.9,3.9,0,0,1,3.135-1.367,3.021,3.021,0,0,1,3.018,1.7,4,4,0,0,1,1.372-1.23,4.052,4.052,0,0,1,2-.469q3.477,0,3.535,3.682V21H70.654V14.027a2.426,2.426,0,0,0-.518-1.694,2.279,2.279,0,0,0-1.738-.562,2.4,2.4,0,0,0-1.67.6,2.436,2.436,0,0,0-.771,1.616V21H64.141V14.076a2.016,2.016,0,0,0-2.256-2.3,2.417,2.417,0,0,0-2.432,1.514V21H57.646V10.434ZM79.57,21.2a4.617,4.617,0,0,1-3.5-1.411,5.237,5.237,0,0,1-1.348-3.774v-.332a6.341,6.341,0,0,1,.6-2.808,4.685,4.685,0,0,1,1.68-1.934,4.223,4.223,0,0,1,2.339-.7,3.957,3.957,0,0,1,3.2,1.357,5.877,5.877,0,0,1,1.143,3.887v.752H76.533a3.756,3.756,0,0,0,.913,2.524,2.87,2.87,0,0,0,2.222.962,3.147,3.147,0,0,0,1.621-.391,4.073,4.073,0,0,0,1.162-1.035l1.1.859A4.437,4.437,0,0,1,79.57,21.2Zm-.225-9.473a2.41,2.41,0,0,0-1.836.8,3.869,3.869,0,0,0-.918,2.231h5.293v-.137a3.441,3.441,0,0,0-.742-2.134A2.269,2.269,0,0,0,79.346,11.723Zm8.145-1.289.059,1.328a3.85,3.85,0,0,1,3.164-1.523q3.35,0,3.379,3.779V21H92.285V14.008a2.432,2.432,0,0,0-.522-1.689,2.094,2.094,0,0,0-1.6-.547,2.607,2.607,0,0,0-1.543.469,3.183,3.183,0,0,0-1.035,1.23V21H85.781V10.434ZM99.268,7.875v2.559h1.973v1.4H99.268v6.553a1.464,1.464,0,0,0,.264.952,1.11,1.11,0,0,0,.9.317,4.374,4.374,0,0,0,.859-.117V21a5.238,5.238,0,0,1-1.387.2,2.25,2.25,0,0,1-1.826-.732,3.147,3.147,0,0,1-.615-2.08V11.83H95.537v-1.4h1.924V7.875ZM109.873,21a3.8,3.8,0,0,1-.254-1.113,4.031,4.031,0,0,1-3.008,1.309,3.73,3.73,0,0,1-2.563-.884,2.859,2.859,0,0,1-1-2.241,2.987,2.987,0,0,1,1.255-2.563,5.916,5.916,0,0,1,3.53-.913h1.758v-.83a2.029,2.029,0,0,0-.566-1.509,2.276,2.276,0,0,0-1.67-.562,2.634,2.634,0,0,0-1.621.488,1.439,1.439,0,0,0-.654,1.182h-1.816a2.493,2.493,0,0,1,.562-1.528,3.832,3.832,0,0,1,1.523-1.167,5.125,5.125,0,0,1,2.114-.43,4.177,4.177,0,0,1,2.861.913,3.294,3.294,0,0,1,1.074,2.515v4.863a5.946,5.946,0,0,0,.371,2.314V21Zm-3-1.377a3.175,3.175,0,0,0,1.611-.439,2.658,2.658,0,0,0,1.1-1.143V15.873h-1.416q-3.32,0-3.32,1.943a1.645,1.645,0,0,0,.566,1.328A2.177,2.177,0,0,0,106.875,19.623Zm11.592.1a2.6,2.6,0,0,0,1.689-.586,2.061,2.061,0,0,0,.8-1.465h1.709a3.276,3.276,0,0,1-.625,1.729,4.116,4.116,0,0,1-1.538,1.309,4.438,4.438,0,0,1-2.036.488,4.353,4.353,0,0,1-3.433-1.44,5.737,5.737,0,0,1-1.274-3.94v-.3a6.361,6.361,0,0,1,.566-2.744,4.314,4.314,0,0,1,1.626-1.865,4.619,4.619,0,0,1,2.5-.664,4.238,4.238,0,0,1,2.954,1.064,3.8,3.8,0,0,1,1.255,2.764h-1.709a2.49,2.49,0,0,0-.776-1.685,2.415,2.415,0,0,0-1.724-.659,2.529,2.529,0,0,0-2.134.991,4.655,4.655,0,0,0-.757,2.866v.342a4.562,4.562,0,0,0,.752,2.813A2.541,2.541,0,0,0,118.467,19.721ZM126.66,21h-1.807V10.434h1.807ZM124.707,7.631a1.078,1.078,0,0,1,.269-.742,1.008,1.008,0,0,1,.8-.3,1.024,1.024,0,0,1,.8.3,1.067,1.067,0,0,1,.273.742,1.032,1.032,0,0,1-.273.732,1.043,1.043,0,0,1-.8.293,1.026,1.026,0,0,1-.8-.293A1.043,1.043,0,0,1,124.707,7.631Zm4.365,7.988a6.241,6.241,0,0,1,.61-2.793,4.553,4.553,0,0,1,1.7-1.914,4.626,4.626,0,0,1,2.485-.674,4.456,4.456,0,0,1,3.491,1.494,5.748,5.748,0,0,1,1.333,3.975v.127A6.3,6.3,0,0,1,138.1,18.6a4.486,4.486,0,0,1-1.689,1.909,4.679,4.679,0,0,1-2.524.684,4.445,4.445,0,0,1-3.481-1.494,5.719,5.719,0,0,1-1.333-3.955Zm1.816.215a4.52,4.52,0,0,0,.815,2.822,2.763,2.763,0,0,0,4.37-.015,4.943,4.943,0,0,0,.811-3.022,4.513,4.513,0,0,0-.825-2.817,2.623,2.623,0,0,0-2.192-1.079,2.594,2.594,0,0,0-2.158,1.064A4.906,4.906,0,0,0,130.889,15.834ZM134.688,6h2.188l-2.617,2.871H132.8Zm7.979,4.434.059,1.328a3.851,3.851,0,0,1,3.164-1.523q3.35,0,3.379,3.779V21h-1.807V14.008a2.433,2.433,0,0,0-.522-1.689,2.094,2.094,0,0,0-1.6-.547,2.607,2.607,0,0,0-1.543.469,3.183,3.183,0,0,0-1.035,1.23V21h-1.807V10.434ZM.928,42.629A6.19,6.19,0,0,1,2.08,38.718,3.644,3.644,0,0,1,5.1,37.238a3.665,3.665,0,0,1,2.939,1.27V33H9.844V48H8.184L8.1,46.867A3.679,3.679,0,0,1,5.078,48.2a3.609,3.609,0,0,1-2.993-1.5A6.26,6.26,0,0,1,.928,42.766Zm1.807.205a4.687,4.687,0,0,0,.742,2.813,2.4,2.4,0,0,0,2.051,1.016,2.636,2.636,0,0,0,2.51-1.543V40.266a2.656,2.656,0,0,0-2.49-1.494A2.411,2.411,0,0,0,3.477,39.8,5.16,5.16,0,0,0,2.734,42.834Zm14.3,5.361a4.617,4.617,0,0,1-3.5-1.411,5.237,5.237,0,0,1-1.348-3.774v-.332a6.341,6.341,0,0,1,.6-2.808,4.685,4.685,0,0,1,1.68-1.934,4.223,4.223,0,0,1,2.339-.7,3.957,3.957,0,0,1,3.2,1.357,5.877,5.877,0,0,1,1.143,3.887v.752H13.994a3.756,3.756,0,0,0,.913,2.524,2.87,2.87,0,0,0,2.222.962,3.147,3.147,0,0,0,1.621-.391,4.073,4.073,0,0,0,1.162-1.035l1.1.859A4.437,4.437,0,0,1,17.031,48.2Zm-.225-9.473a2.41,2.41,0,0,0-1.836.8,3.868,3.868,0,0,0-.918,2.231h5.293v-.137a3.441,3.441,0,0,0-.742-2.134A2.269,2.269,0,0,0,16.807,38.723ZM25.205,48H23.4V33h1.807Zm9.541-10.566.049,1.172a3.9,3.9,0,0,1,3.135-1.367,3.021,3.021,0,0,1,3.018,1.7,4,4,0,0,1,1.372-1.23,4.052,4.052,0,0,1,2-.469q3.477,0,3.535,3.682V48H46.045V41.027a2.426,2.426,0,0,0-.518-1.694,2.279,2.279,0,0,0-1.738-.562,2.4,2.4,0,0,0-1.67.6,2.436,2.436,0,0,0-.771,1.616V48H39.531V41.076a2.016,2.016,0,0,0-2.256-2.3,2.417,2.417,0,0,0-2.432,1.514V48H33.037V37.434ZM54.961,48.2a4.617,4.617,0,0,1-3.5-1.411,5.237,5.237,0,0,1-1.348-3.774v-.332a6.341,6.341,0,0,1,.6-2.808,4.685,4.685,0,0,1,1.68-1.934,4.223,4.223,0,0,1,2.339-.7,3.957,3.957,0,0,1,3.2,1.357,5.877,5.877,0,0,1,1.143,3.887v.752H51.924a3.756,3.756,0,0,0,.913,2.524,2.87,2.87,0,0,0,2.222.962,3.147,3.147,0,0,0,1.621-.391,4.073,4.073,0,0,0,1.162-1.035l1.1.859A4.437,4.437,0,0,1,54.961,48.2Zm-.225-9.473a2.41,2.41,0,0,0-1.836.8,3.868,3.868,0,0,0-.918,2.231h5.293v-.137a3.441,3.441,0,0,0-.742-2.134A2.269,2.269,0,0,0,54.736,38.723Zm11.543.332a5.414,5.414,0,0,0-.889-.068A2.381,2.381,0,0,0,62.979,40.5V48H61.172V37.434H62.93l.029,1.221a2.813,2.813,0,0,1,2.52-1.416,1.846,1.846,0,0,1,.8.137Zm5.713,7.666a2.6,2.6,0,0,0,1.689-.586,2.061,2.061,0,0,0,.8-1.465h1.709a3.276,3.276,0,0,1-.625,1.729,4.116,4.116,0,0,1-1.538,1.309,4.438,4.438,0,0,1-2.036.488,4.353,4.353,0,0,1-3.433-1.44,5.737,5.737,0,0,1-1.274-3.94v-.3a6.361,6.361,0,0,1,.566-2.744A4.314,4.314,0,0,1,69.478,37.9a4.619,4.619,0,0,1,2.5-.664A4.238,4.238,0,0,1,74.937,38.3a3.8,3.8,0,0,1,1.255,2.764H74.482a2.49,2.49,0,0,0-.776-1.685,2.415,2.415,0,0,0-1.724-.659,2.529,2.529,0,0,0-2.134.991,4.655,4.655,0,0,0-.757,2.866v.342a4.562,4.562,0,0,0,.752,2.813A2.541,2.541,0,0,0,71.992,46.721ZM84.746,48a3.8,3.8,0,0,1-.254-1.113A4.031,4.031,0,0,1,81.484,48.2a3.73,3.73,0,0,1-2.563-.884,2.859,2.859,0,0,1-1-2.241,2.987,2.987,0,0,1,1.255-2.563,5.916,5.916,0,0,1,3.53-.913h1.758v-.83a2.029,2.029,0,0,0-.566-1.509,2.276,2.276,0,0,0-1.67-.562,2.634,2.634,0,0,0-1.621.488,1.439,1.439,0,0,0-.654,1.182H78.135a2.493,2.493,0,0,1,.562-1.528,3.832,3.832,0,0,1,1.523-1.167,5.125,5.125,0,0,1,2.114-.43,4.177,4.177,0,0,1,2.861.913,3.294,3.294,0,0,1,1.074,2.515v4.863a5.946,5.946,0,0,0,.371,2.314V48Zm-3-1.377a3.175,3.175,0,0,0,1.611-.439,2.658,2.658,0,0,0,1.1-1.143V42.873H83.047q-3.32,0-3.32,1.943a1.645,1.645,0,0,0,.566,1.328A2.177,2.177,0,0,0,81.748,46.623Zm6.914-3.994a6.19,6.19,0,0,1,1.152-3.911,3.921,3.921,0,0,1,5.957-.21V33h1.807V48h-1.66l-.088-1.133A3.679,3.679,0,0,1,92.813,48.2a3.609,3.609,0,0,1-2.993-1.5,6.26,6.26,0,0,1-1.157-3.926Zm1.807.205a4.687,4.687,0,0,0,.742,2.813,2.4,2.4,0,0,0,2.051,1.016,2.636,2.636,0,0,0,2.51-1.543V40.266a2.656,2.656,0,0,0-2.49-1.494,2.411,2.411,0,0,0-2.07,1.025A5.16,5.16,0,0,0,90.469,42.834Zm9.434-.215a6.241,6.241,0,0,1,.61-2.793,4.553,4.553,0,0,1,1.7-1.914,4.626,4.626,0,0,1,2.485-.674,4.456,4.456,0,0,1,3.491,1.494,5.748,5.748,0,0,1,1.333,3.975v.127a6.3,6.3,0,0,1-.591,2.769,4.486,4.486,0,0,1-1.689,1.909,4.679,4.679,0,0,1-2.524.684,4.445,4.445,0,0,1-3.481-1.494A5.719,5.719,0,0,1,99.9,42.746Zm1.816.215a4.52,4.52,0,0,0,.815,2.822,2.763,2.763,0,0,0,4.37-.015,4.943,4.943,0,0,0,.811-3.022,4.513,4.513,0,0,0-.825-2.817,2.623,2.623,0,0,0-2.192-1.079,2.594,2.594,0,0,0-2.158,1.064A4.906,4.906,0,0,0,101.719,42.834Z" transform="translate(426.96 2569.432)" fill="#12263f"/>
    <path id="Trazado_1262220" data-name="Trazado 1262220" d="M10.791,21H.869V18.852l4.57-4.8q1.689-1.924,1.689-3.057a2.126,2.126,0,0,0-.4-1.4,1.43,1.43,0,0,0-1.162-.479,1.447,1.447,0,0,0-1.221.64,2.629,2.629,0,0,0-.469,1.6H.576A4.67,4.67,0,0,1,1.23,8.935,4.588,4.588,0,0,1,3.047,7.2a5.4,5.4,0,0,1,2.6-.625,5.308,5.308,0,0,1,3.55,1.064A3.8,3.8,0,0,1,10.439,10.7a4.439,4.439,0,0,1-.312,1.636A7.173,7.173,0,0,1,9.155,14a24.476,24.476,0,0,1-2.124,2.339L5.2,18.461h5.6Zm3.75-3.193a1.874,1.874,0,0,1,1.3.464,1.619,1.619,0,0,1,0,2.373,2.049,2.049,0,0,1-2.6,0,1.618,1.618,0,0,1,0-2.363A1.858,1.858,0,0,1,14.541,17.807ZM26.27,21H24.395V6.781H26.27Zm2.705-5.371a6.19,6.19,0,0,1,1.152-3.911,3.921,3.921,0,0,1,5.957-.21V6h1.807V21H36.23l-.088-1.133A3.679,3.679,0,0,1,33.125,21.2a3.609,3.609,0,0,1-2.993-1.5,6.26,6.26,0,0,1-1.157-3.926Zm1.807.205a4.687,4.687,0,0,0,.742,2.813,2.4,2.4,0,0,0,2.051,1.016,2.636,2.636,0,0,0,2.51-1.543V13.266a2.656,2.656,0,0,0-2.49-1.494,2.411,2.411,0,0,0-2.07,1.025A5.16,5.16,0,0,0,30.781,15.834Zm14.3,5.361a4.617,4.617,0,0,1-3.5-1.411,5.237,5.237,0,0,1-1.348-3.774v-.332a6.341,6.341,0,0,1,.6-2.808,4.685,4.685,0,0,1,1.68-1.934,4.223,4.223,0,0,1,2.339-.7,3.957,3.957,0,0,1,3.2,1.357A5.877,5.877,0,0,1,49.2,15.482v.752H42.041a3.756,3.756,0,0,0,.913,2.524,2.87,2.87,0,0,0,2.222.962A3.147,3.147,0,0,0,46.8,19.33a4.073,4.073,0,0,0,1.162-1.035l1.1.859A4.437,4.437,0,0,1,45.078,21.2Zm-.225-9.473a2.41,2.41,0,0,0-1.836.8A3.868,3.868,0,0,0,42.1,14.75h5.293v-.137a3.441,3.441,0,0,0-.742-2.134A2.269,2.269,0,0,0,44.854,11.723ZM53,10.434l.059,1.328a3.851,3.851,0,0,1,3.164-1.523q3.35,0,3.379,3.779V21H57.793V14.008a2.432,2.432,0,0,0-.522-1.689,2.094,2.094,0,0,0-1.6-.547,2.607,2.607,0,0,0-1.543.469,3.183,3.183,0,0,0-1.035,1.23V21H51.289V10.434ZM64.775,7.875v2.559h1.973v1.4H64.775v6.553a1.464,1.464,0,0,0,.264.952,1.11,1.11,0,0,0,.9.317,4.374,4.374,0,0,0,.859-.117V21a5.238,5.238,0,0,1-1.387.2,2.25,2.25,0,0,1-1.826-.732,3.147,3.147,0,0,1-.615-2.08V11.83H61.045v-1.4h1.924V7.875ZM70.82,21H69.014V10.434H70.82ZM68.867,7.631a1.078,1.078,0,0,1,.269-.742,1.008,1.008,0,0,1,.8-.3,1.024,1.024,0,0,1,.8.3,1.067,1.067,0,0,1,.273.742,1.032,1.032,0,0,1-.273.732,1.043,1.043,0,0,1-.8.293,1.026,1.026,0,0,1-.8-.293A1.043,1.043,0,0,1,68.867,7.631ZM74.316,21V11.83h-1.67v-1.4h1.67v-.9a3.671,3.671,0,0,1,1.011-2.754,3.919,3.919,0,0,1,2.856-.986,8.6,8.6,0,0,1,2.764.6l-.3,1.523a6.259,6.259,0,0,0-2.324-.488,2.274,2.274,0,0,0-1.675.522,2.154,2.154,0,0,0-.513,1.567v.918h2.158v1.4H76.133V21Zm7.529,0H80.029V10.434h1.816Zm7.178-1.279a2.6,2.6,0,0,0,1.689-.586,2.061,2.061,0,0,0,.8-1.465h1.709A3.276,3.276,0,0,1,92.6,19.4a4.116,4.116,0,0,1-1.538,1.309,4.438,4.438,0,0,1-2.036.488,4.353,4.353,0,0,1-3.433-1.44,5.737,5.737,0,0,1-1.274-3.94v-.3a6.361,6.361,0,0,1,.566-2.744A4.314,4.314,0,0,1,86.509,10.9a4.619,4.619,0,0,1,2.5-.664A4.238,4.238,0,0,1,91.968,11.3a3.8,3.8,0,0,1,1.255,2.764H91.514a2.49,2.49,0,0,0-.776-1.685,2.415,2.415,0,0,0-1.724-.659,2.529,2.529,0,0,0-2.134.991,4.655,4.655,0,0,0-.757,2.866v.342a4.562,4.562,0,0,0,.752,2.813A2.541,2.541,0,0,0,89.023,19.721ZM101.777,21a3.8,3.8,0,0,1-.254-1.113A4.031,4.031,0,0,1,98.516,21.2a3.73,3.73,0,0,1-2.563-.884,2.859,2.859,0,0,1-1-2.241,2.987,2.987,0,0,1,1.255-2.563,5.916,5.916,0,0,1,3.53-.913h1.758v-.83a2.029,2.029,0,0,0-.566-1.509,2.276,2.276,0,0,0-1.67-.562,2.634,2.634,0,0,0-1.621.488,1.439,1.439,0,0,0-.654,1.182H95.166a2.493,2.493,0,0,1,.562-1.528,3.832,3.832,0,0,1,1.523-1.167,5.125,5.125,0,0,1,2.114-.43,4.177,4.177,0,0,1,2.861.913,3.294,3.294,0,0,1,1.074,2.515v4.863a5.946,5.946,0,0,0,.371,2.314V21Zm-3-1.377a3.175,3.175,0,0,0,1.611-.439,2.658,2.658,0,0,0,1.1-1.143V15.873h-1.416q-3.32,0-3.32,1.943a1.645,1.645,0,0,0,.566,1.328A2.177,2.177,0,0,0,98.779,19.623Zm11.592.1a2.6,2.6,0,0,0,1.689-.586,2.061,2.061,0,0,0,.8-1.465h1.709a3.276,3.276,0,0,1-.625,1.729,4.116,4.116,0,0,1-1.538,1.309,4.438,4.438,0,0,1-2.036.488,4.353,4.353,0,0,1-3.433-1.44,5.737,5.737,0,0,1-1.274-3.94v-.3a6.361,6.361,0,0,1,.566-2.744,4.314,4.314,0,0,1,1.626-1.865,4.619,4.619,0,0,1,2.5-.664,4.238,4.238,0,0,1,2.954,1.064,3.8,3.8,0,0,1,1.255,2.764h-1.709a2.49,2.49,0,0,0-.776-1.685,2.415,2.415,0,0,0-1.724-.659,2.529,2.529,0,0,0-2.134.991,4.655,4.655,0,0,0-.757,2.866v.342a4.562,4.562,0,0,0,.752,2.813A2.541,2.541,0,0,0,110.371,19.721ZM118.564,21h-1.807V10.434h1.807ZM116.611,7.631a1.078,1.078,0,0,1,.269-.742,1.008,1.008,0,0,1,.8-.3,1.024,1.024,0,0,1,.8.3,1.067,1.067,0,0,1,.273.742,1.032,1.032,0,0,1-.273.732,1.043,1.043,0,0,1-.8.293,1.026,1.026,0,0,1-.8-.293A1.043,1.043,0,0,1,116.611,7.631Zm4.365,7.988a6.241,6.241,0,0,1,.61-2.793,4.553,4.553,0,0,1,1.7-1.914,4.626,4.626,0,0,1,2.485-.674,4.456,4.456,0,0,1,3.491,1.494,5.748,5.748,0,0,1,1.333,3.975v.127A6.3,6.3,0,0,1,130,18.6a4.486,4.486,0,0,1-1.689,1.909,4.679,4.679,0,0,1-2.524.684A4.445,4.445,0,0,1,122.31,19.7a5.719,5.719,0,0,1-1.333-3.955Zm1.816.215a4.52,4.52,0,0,0,.815,2.822,2.763,2.763,0,0,0,4.37-.015,4.943,4.943,0,0,0,.811-3.022,4.513,4.513,0,0,0-.825-2.817,2.623,2.623,0,0,0-2.192-1.079,2.594,2.594,0,0,0-2.158,1.064A4.906,4.906,0,0,0,122.793,15.834ZM126.592,6h2.188l-2.617,2.871h-1.455Zm7.979,4.434.059,1.328a3.851,3.851,0,0,1,3.164-1.523q3.35,0,3.379,3.779V21h-1.807V14.008a2.433,2.433,0,0,0-.522-1.689,2.094,2.094,0,0,0-1.6-.547,2.607,2.607,0,0,0-1.543.469,3.183,3.183,0,0,0-1.035,1.23V21h-1.807V10.434ZM.928,42.629A6.19,6.19,0,0,1,2.08,38.718,3.644,3.644,0,0,1,5.1,37.238a3.665,3.665,0,0,1,2.939,1.27V33H9.844V48H8.184L8.1,46.867A3.679,3.679,0,0,1,5.078,48.2a3.609,3.609,0,0,1-2.993-1.5A6.26,6.26,0,0,1,.928,42.766Zm1.807.205a4.687,4.687,0,0,0,.742,2.813,2.4,2.4,0,0,0,2.051,1.016,2.636,2.636,0,0,0,2.51-1.543V40.266a2.656,2.656,0,0,0-2.49-1.494A2.411,2.411,0,0,0,3.477,39.8,5.16,5.16,0,0,0,2.734,42.834Zm14.3,5.361a4.617,4.617,0,0,1-3.5-1.411,5.237,5.237,0,0,1-1.348-3.774v-.332a6.341,6.341,0,0,1,.6-2.808,4.685,4.685,0,0,1,1.68-1.934,4.223,4.223,0,0,1,2.339-.7,3.957,3.957,0,0,1,3.2,1.357,5.877,5.877,0,0,1,1.143,3.887v.752H13.994a3.756,3.756,0,0,0,.913,2.524,2.87,2.87,0,0,0,2.222.962,3.147,3.147,0,0,0,1.621-.391,4.073,4.073,0,0,0,1.162-1.035l1.1.859A4.437,4.437,0,0,1,17.031,48.2Zm-.225-9.473a2.41,2.41,0,0,0-1.836.8,3.868,3.868,0,0,0-.918,2.231h5.293v-.137a3.441,3.441,0,0,0-.742-2.134A2.269,2.269,0,0,0,16.807,38.723Zm20.313,4.111a6.327,6.327,0,0,1-1.1,3.887A3.537,3.537,0,0,1,33.027,48.2,3.875,3.875,0,0,1,30,46.975v5.088H28.193V37.434h1.65l.088,1.172A3.722,3.722,0,0,1,33,37.238a3.6,3.6,0,0,1,3.013,1.436,6.4,6.4,0,0,1,1.108,3.994Zm-1.807-.205a4.669,4.669,0,0,0-.762-2.822,2.454,2.454,0,0,0-2.09-1.035A2.656,2.656,0,0,0,30,40.227v5.049a2.661,2.661,0,0,0,2.48,1.445,2.442,2.442,0,0,0,2.065-1.03A5.1,5.1,0,0,0,35.313,42.629Zm9.209-3.574a5.414,5.414,0,0,0-.889-.068A2.381,2.381,0,0,0,41.221,40.5V48H39.414V37.434h1.758l.029,1.221a2.813,2.813,0,0,1,2.52-1.416,1.846,1.846,0,0,1,.8.137Zm.986,3.564a6.241,6.241,0,0,1,.61-2.793,4.553,4.553,0,0,1,1.7-1.914,4.626,4.626,0,0,1,2.485-.674,4.456,4.456,0,0,1,3.491,1.494,5.748,5.748,0,0,1,1.333,3.975v.127a6.3,6.3,0,0,1-.591,2.769,4.486,4.486,0,0,1-1.689,1.909,4.679,4.679,0,0,1-2.524.684A4.445,4.445,0,0,1,46.841,46.7a5.719,5.719,0,0,1-1.333-3.955Zm1.816.215a4.52,4.52,0,0,0,.815,2.822,2.763,2.763,0,0,0,4.37-.015,4.943,4.943,0,0,0,.811-3.022A4.513,4.513,0,0,0,52.5,39.8,2.623,2.623,0,0,0,50.3,38.723a2.594,2.594,0,0,0-2.158,1.064A4.906,4.906,0,0,0,47.324,42.834ZM63.545,45.2a1.33,1.33,0,0,0-.552-1.138,5.311,5.311,0,0,0-1.924-.7,9.1,9.1,0,0,1-2.178-.7,3.1,3.1,0,0,1-1.191-.977,2.336,2.336,0,0,1-.386-1.348,2.741,2.741,0,0,1,1.1-2.2,4.291,4.291,0,0,1,2.808-.9,4.415,4.415,0,0,1,2.915.928,2.947,2.947,0,0,1,1.118,2.373H63.438a1.631,1.631,0,0,0-.63-1.279,2.36,2.36,0,0,0-1.587-.537,2.47,2.47,0,0,0-1.543.43,1.353,1.353,0,0,0-.557,1.123,1.1,1.1,0,0,0,.518.986,6.368,6.368,0,0,0,1.87.635,9.744,9.744,0,0,1,2.192.723,3.2,3.2,0,0,1,1.245,1.011,2.485,2.485,0,0,1,.405,1.44,2.7,2.7,0,0,1-1.133,2.271,4.752,4.752,0,0,1-2.939.854,5.321,5.321,0,0,1-2.246-.449A3.653,3.653,0,0,1,57.5,46.491a3.025,3.025,0,0,1-.552-1.743H58.76a1.87,1.87,0,0,0,.728,1.44,2.822,2.822,0,0,0,1.792.532,2.913,2.913,0,0,0,1.646-.415A1.275,1.275,0,0,0,63.545,45.2Zm13.086-2.363a6.327,6.327,0,0,1-1.1,3.887A3.537,3.537,0,0,1,72.539,48.2a3.875,3.875,0,0,1-3.027-1.221v5.088H67.705V37.434h1.65l.088,1.172a3.722,3.722,0,0,1,3.066-1.367,3.6,3.6,0,0,1,3.013,1.436,6.4,6.4,0,0,1,1.108,3.994Zm-1.807-.205a4.669,4.669,0,0,0-.762-2.822,2.454,2.454,0,0,0-2.09-1.035,2.656,2.656,0,0,0-2.461,1.455v5.049a2.661,2.661,0,0,0,2.48,1.445,2.442,2.442,0,0,0,2.065-1.03A5.1,5.1,0,0,0,74.824,42.629ZM83.311,48.2a4.617,4.617,0,0,1-3.5-1.411,5.237,5.237,0,0,1-1.348-3.774v-.332a6.341,6.341,0,0,1,.6-2.808,4.685,4.685,0,0,1,1.68-1.934,4.223,4.223,0,0,1,2.339-.7,3.957,3.957,0,0,1,3.2,1.357,5.877,5.877,0,0,1,1.143,3.887v.752H80.273a3.756,3.756,0,0,0,.913,2.524,2.87,2.87,0,0,0,2.222.962,3.147,3.147,0,0,0,1.621-.391,4.073,4.073,0,0,0,1.162-1.035l1.1.859A4.437,4.437,0,0,1,83.311,48.2Zm-.225-9.473a2.41,2.41,0,0,0-1.836.8,3.869,3.869,0,0,0-.918,2.231h5.293v-.137a3.441,3.441,0,0,0-.742-2.134A2.269,2.269,0,0,0,83.086,38.723Zm10.674,8a2.6,2.6,0,0,0,1.689-.586,2.061,2.061,0,0,0,.8-1.465h1.709a3.276,3.276,0,0,1-.625,1.729A4.116,4.116,0,0,1,95.8,47.707a4.438,4.438,0,0,1-2.036.488,4.353,4.353,0,0,1-3.433-1.44,5.737,5.737,0,0,1-1.274-3.94v-.3a6.361,6.361,0,0,1,.566-2.744A4.314,4.314,0,0,1,91.245,37.9a4.619,4.619,0,0,1,2.5-.664A4.238,4.238,0,0,1,96.7,38.3a3.8,3.8,0,0,1,1.255,2.764H96.25a2.49,2.49,0,0,0-.776-1.685,2.415,2.415,0,0,0-1.724-.659,2.529,2.529,0,0,0-2.134.991,4.655,4.655,0,0,0-.757,2.866v.342a4.562,4.562,0,0,0,.752,2.813A2.541,2.541,0,0,0,93.76,46.721Zm8.682-11.846v2.559h1.973v1.4h-1.973v6.553a1.464,1.464,0,0,0,.264.952,1.11,1.11,0,0,0,.9.317,4.374,4.374,0,0,0,.859-.117V48a5.238,5.238,0,0,1-1.387.2,2.25,2.25,0,0,1-1.826-.732,3.147,3.147,0,0,1-.615-2.08V38.83H98.711v-1.4h1.924V34.875Zm3.408,7.744a6.241,6.241,0,0,1,.61-2.793,4.553,4.553,0,0,1,1.7-1.914,4.626,4.626,0,0,1,2.485-.674,4.456,4.456,0,0,1,3.491,1.494,5.748,5.748,0,0,1,1.333,3.975v.127a6.3,6.3,0,0,1-.591,2.769,4.486,4.486,0,0,1-1.689,1.909,4.679,4.679,0,0,1-2.524.684,4.445,4.445,0,0,1-3.481-1.494,5.719,5.719,0,0,1-1.333-3.955Zm1.816.215a4.52,4.52,0,0,0,.815,2.822,2.763,2.763,0,0,0,4.37-.015,4.943,4.943,0,0,0,.811-3.022,4.513,4.513,0,0,0-.825-2.817,2.623,2.623,0,0,0-2.192-1.079,2.594,2.594,0,0,0-2.158,1.064A4.906,4.906,0,0,0,107.666,42.834ZM123.887,45.2a1.33,1.33,0,0,0-.552-1.138,5.311,5.311,0,0,0-1.924-.7,9.1,9.1,0,0,1-2.178-.7,3.1,3.1,0,0,1-1.191-.977,2.336,2.336,0,0,1-.386-1.348,2.741,2.741,0,0,1,1.1-2.2,4.291,4.291,0,0,1,2.808-.9,4.415,4.415,0,0,1,2.915.928,2.947,2.947,0,0,1,1.118,2.373h-1.816a1.631,1.631,0,0,0-.63-1.279,2.36,2.36,0,0,0-1.587-.537,2.47,2.47,0,0,0-1.543.43,1.353,1.353,0,0,0-.557,1.123,1.1,1.1,0,0,0,.518.986,6.368,6.368,0,0,0,1.87.635,9.744,9.744,0,0,1,2.192.723,3.2,3.2,0,0,1,1.245,1.011,2.485,2.485,0,0,1,.405,1.44,2.7,2.7,0,0,1-1.133,2.271,4.752,4.752,0,0,1-2.939.854,5.321,5.321,0,0,1-2.246-.449,3.653,3.653,0,0,1-1.528-1.255,3.025,3.025,0,0,1-.552-1.743H119.1a1.87,1.87,0,0,0,.728,1.44,2.822,2.822,0,0,0,1.792.532,2.913,2.913,0,0,0,1.646-.415A1.275,1.275,0,0,0,123.887,45.2Z" transform="translate(724.507 2568.818)" fill="#12263f"/>
    <path id="Trazado_1262221" data-name="Trazado 1262221" d="M3.877,12.514H5.43a1.614,1.614,0,0,0,1.846-1.807A1.562,1.562,0,0,0,6.836,9.56,1.666,1.666,0,0,0,5.6,9.115,1.784,1.784,0,0,0,4.458,9.5a1.162,1.162,0,0,0-.483.947H.684a3.369,3.369,0,0,1,.625-2A4.127,4.127,0,0,1,3.042,7.069a5.926,5.926,0,0,1,2.437-.493A5.823,5.823,0,0,1,9.209,7.66a3.6,3.6,0,0,1,1.357,2.979A3,3,0,0,1,10,12.372,4,4,0,0,1,8.369,13.7a3.823,3.823,0,0,1,1.777,1.245,3.279,3.279,0,0,1,.645,2.065,3.669,3.669,0,0,1-1.465,3.047A6.08,6.08,0,0,1,5.479,21.2a6.306,6.306,0,0,1-2.593-.532,4.062,4.062,0,0,1-1.812-1.475,3.834,3.834,0,0,1-.615-2.144H3.77A1.482,1.482,0,0,0,4.3,18.178a1.862,1.862,0,0,0,1.3.479,1.95,1.95,0,0,0,1.387-.483A1.616,1.616,0,0,0,7.5,16.938a1.889,1.889,0,0,0-.537-1.523,2.245,2.245,0,0,0-1.484-.449h-1.6Zm10.664,5.293a1.874,1.874,0,0,1,1.3.464,1.619,1.619,0,0,1,0,2.373,2.049,2.049,0,0,1-2.6,0,1.618,1.618,0,0,1,0-2.363A1.858,1.858,0,0,1,14.541,17.807ZM24.258,21V6.781h4.014a6.461,6.461,0,0,1,3.281.82,5.548,5.548,0,0,1,2.2,2.334,7.6,7.6,0,0,1,.786,3.477v.908a7.624,7.624,0,0,1-.776,3.525,5.461,5.461,0,0,1-2.217,2.324,6.873,6.873,0,0,1-3.354.83ZM26.133,8.324V19.467h1.973a4.294,4.294,0,0,0,3.374-1.348,5.565,5.565,0,0,0,1.206-3.838v-.83a5.653,5.653,0,0,0-1.138-3.765A4.05,4.05,0,0,0,28.32,8.324ZM41.475,21.2a4.617,4.617,0,0,1-3.5-1.411,5.237,5.237,0,0,1-1.348-3.774v-.332a6.341,6.341,0,0,1,.6-2.808,4.685,4.685,0,0,1,1.68-1.934,4.223,4.223,0,0,1,2.339-.7,3.957,3.957,0,0,1,3.2,1.357A5.877,5.877,0,0,1,45.6,15.482v.752H38.438a3.756,3.756,0,0,0,.913,2.524,2.87,2.87,0,0,0,2.222.962,3.147,3.147,0,0,0,1.621-.391,4.073,4.073,0,0,0,1.162-1.035l1.1.859A4.437,4.437,0,0,1,41.475,21.2Zm-.225-9.473a2.41,2.41,0,0,0-1.836.8A3.868,3.868,0,0,0,38.5,14.75h5.293v-.137a3.441,3.441,0,0,0-.742-2.134A2.269,2.269,0,0,0,41.25,11.723ZM48.291,21V11.83h-1.67v-1.4h1.67v-.9A3.671,3.671,0,0,1,49.3,6.781a3.919,3.919,0,0,1,2.856-.986,8.6,8.6,0,0,1,2.764.6l-.3,1.523a6.259,6.259,0,0,0-2.324-.488,2.274,2.274,0,0,0-1.675.522,2.154,2.154,0,0,0-.513,1.567v.918h2.158v1.4H50.107V21Zm7.529,0H54V10.434H55.82Zm4.648-10.566.059,1.328a3.851,3.851,0,0,1,3.164-1.523q3.35,0,3.379,3.779V21H65.264V14.008a2.432,2.432,0,0,0-.522-1.689,2.094,2.094,0,0,0-1.6-.547,2.607,2.607,0,0,0-1.543.469,3.183,3.183,0,0,0-1.035,1.23V21H58.76V10.434ZM71.758,21H69.951V10.434h1.807ZM69.8,7.631a1.078,1.078,0,0,1,.269-.742,1.008,1.008,0,0,1,.8-.3,1.024,1.024,0,0,1,.8.3,1.067,1.067,0,0,1,.273.742,1.032,1.032,0,0,1-.273.732,1.043,1.043,0,0,1-.8.293,1.026,1.026,0,0,1-.8-.293A1.043,1.043,0,0,1,69.8,7.631Zm9.082,12.09a2.6,2.6,0,0,0,1.689-.586,2.061,2.061,0,0,0,.8-1.465h1.709a3.276,3.276,0,0,1-.625,1.729,4.116,4.116,0,0,1-1.538,1.309,4.438,4.438,0,0,1-2.036.488,4.353,4.353,0,0,1-3.433-1.44,5.737,5.737,0,0,1-1.274-3.94v-.3a6.361,6.361,0,0,1,.566-2.744A4.314,4.314,0,0,1,76.372,10.9a4.619,4.619,0,0,1,2.5-.664A4.238,4.238,0,0,1,81.831,11.3a3.8,3.8,0,0,1,1.255,2.764H81.377a2.49,2.49,0,0,0-.776-1.685,2.415,2.415,0,0,0-1.724-.659,2.529,2.529,0,0,0-2.134.991,4.655,4.655,0,0,0-.757,2.866v.342a4.562,4.562,0,0,0,.752,2.813A2.541,2.541,0,0,0,78.887,19.721ZM87.08,21H85.273V10.434H87.08ZM85.127,7.631a1.078,1.078,0,0,1,.269-.742,1.008,1.008,0,0,1,.8-.3,1.024,1.024,0,0,1,.8.3,1.067,1.067,0,0,1,.273.742,1.032,1.032,0,0,1-.273.732,1.043,1.043,0,0,1-.8.293,1.026,1.026,0,0,1-.8-.293A1.043,1.043,0,0,1,85.127,7.631Zm4.365,7.988a6.241,6.241,0,0,1,.61-2.793,4.553,4.553,0,0,1,1.7-1.914,4.626,4.626,0,0,1,2.485-.674,4.456,4.456,0,0,1,3.491,1.494,5.748,5.748,0,0,1,1.333,3.975v.127a6.3,6.3,0,0,1-.591,2.769,4.486,4.486,0,0,1-1.689,1.909,4.679,4.679,0,0,1-2.524.684A4.445,4.445,0,0,1,90.825,19.7a5.719,5.719,0,0,1-1.333-3.955Zm1.816.215a4.52,4.52,0,0,0,.815,2.822,2.763,2.763,0,0,0,4.37-.015,4.943,4.943,0,0,0,.811-3.022,4.513,4.513,0,0,0-.825-2.817,2.623,2.623,0,0,0-2.192-1.079,2.594,2.594,0,0,0-2.158,1.064A4.906,4.906,0,0,0,91.309,15.834ZM95.107,6h2.188L94.678,8.871H93.223Zm7.979,4.434.059,1.328a3.85,3.85,0,0,1,3.164-1.523q3.35,0,3.379,3.779V21h-1.807V14.008a2.432,2.432,0,0,0-.522-1.689,2.094,2.094,0,0,0-1.6-.547,2.607,2.607,0,0,0-1.543.469,3.183,3.183,0,0,0-1.035,1.23V21h-1.807V10.434Zm13.838,5.2a6.19,6.19,0,0,1,1.152-3.911,3.921,3.921,0,0,1,5.957-.21V6h1.807V21h-1.66l-.088-1.133a3.679,3.679,0,0,1-3.018,1.328,3.609,3.609,0,0,1-2.993-1.5,6.26,6.26,0,0,1-1.157-3.926Zm1.807.205a4.687,4.687,0,0,0,.742,2.813,2.4,2.4,0,0,0,2.051,1.016,2.636,2.636,0,0,0,2.51-1.543V13.266a2.656,2.656,0,0,0-2.49-1.494,2.411,2.411,0,0,0-2.07,1.025A5.16,5.16,0,0,0,118.73,15.834Zm14.3,5.361a4.617,4.617,0,0,1-3.5-1.411,5.237,5.237,0,0,1-1.348-3.774v-.332a6.341,6.341,0,0,1,.6-2.808,4.685,4.685,0,0,1,1.68-1.934,4.223,4.223,0,0,1,2.339-.7,3.957,3.957,0,0,1,3.2,1.357,5.877,5.877,0,0,1,1.143,3.887v.752H129.99a3.756,3.756,0,0,0,.913,2.524,2.87,2.87,0,0,0,2.222.962,3.147,3.147,0,0,0,1.621-.391,4.073,4.073,0,0,0,1.162-1.035l1.1.859A4.437,4.437,0,0,1,133.027,21.2Zm-.225-9.473a2.41,2.41,0,0,0-1.836.8,3.868,3.868,0,0,0-.918,2.231h5.293v-.137a3.441,3.441,0,0,0-.742-2.134A2.269,2.269,0,0,0,132.8,11.723Zm-127.2,35a2.6,2.6,0,0,0,1.689-.586,2.061,2.061,0,0,0,.8-1.465H9.8A3.276,3.276,0,0,1,9.18,46.4a4.116,4.116,0,0,1-1.538,1.309,4.438,4.438,0,0,1-2.036.488,4.353,4.353,0,0,1-3.433-1.44A5.737,5.737,0,0,1,.9,42.814v-.3a6.361,6.361,0,0,1,.566-2.744A4.314,4.314,0,0,1,3.091,37.9a4.619,4.619,0,0,1,2.5-.664A4.238,4.238,0,0,1,8.55,38.3,3.8,3.8,0,0,1,9.8,41.066H8.1a2.49,2.49,0,0,0-.776-1.685A2.415,2.415,0,0,0,5.6,38.723a2.529,2.529,0,0,0-2.134.991,4.655,4.655,0,0,0-.757,2.866v.342a4.562,4.562,0,0,0,.752,2.813A2.541,2.541,0,0,0,5.605,46.721ZM18.359,48a3.8,3.8,0,0,1-.254-1.113A4.031,4.031,0,0,1,15.1,48.2a3.73,3.73,0,0,1-2.563-.884,2.859,2.859,0,0,1-1-2.241,2.987,2.987,0,0,1,1.255-2.563,5.916,5.916,0,0,1,3.53-.913h1.758v-.83a2.029,2.029,0,0,0-.566-1.509,2.276,2.276,0,0,0-1.67-.562,2.634,2.634,0,0,0-1.621.488,1.439,1.439,0,0,0-.654,1.182H11.748a2.493,2.493,0,0,1,.562-1.528,3.832,3.832,0,0,1,1.523-1.167,5.125,5.125,0,0,1,2.114-.43,4.177,4.177,0,0,1,2.861.913,3.294,3.294,0,0,1,1.074,2.515v4.863a5.946,5.946,0,0,0,.371,2.314V48Zm-3-1.377a3.175,3.175,0,0,0,1.611-.439,2.658,2.658,0,0,0,1.1-1.143V42.873H16.66q-3.32,0-3.32,1.943a1.645,1.645,0,0,0,.566,1.328A2.177,2.177,0,0,0,15.361,46.623Zm9.063-9.189.059,1.328a3.85,3.85,0,0,1,3.164-1.523q3.35,0,3.379,3.779V48H29.219V41.008a2.432,2.432,0,0,0-.522-1.689,2.094,2.094,0,0,0-1.6-.547,2.607,2.607,0,0,0-1.543.469,3.183,3.183,0,0,0-1.035,1.23V48H22.715V37.434Zm8.887,5.2a6.19,6.19,0,0,1,1.152-3.911,3.921,3.921,0,0,1,5.957-.21V33h1.807V48h-1.66l-.088-1.133A3.679,3.679,0,0,1,37.461,48.2a3.609,3.609,0,0,1-2.993-1.5,6.26,6.26,0,0,1-1.157-3.926Zm1.807.205a4.687,4.687,0,0,0,.742,2.813,2.4,2.4,0,0,0,2.051,1.016,2.636,2.636,0,0,0,2.51-1.543V40.266a2.656,2.656,0,0,0-2.49-1.494,2.411,2.411,0,0,0-2.07,1.025A5.16,5.16,0,0,0,35.117,42.834ZM46.992,48H45.186V37.434h1.807ZM45.039,34.631a1.078,1.078,0,0,1,.269-.742,1.008,1.008,0,0,1,.8-.3,1.024,1.024,0,0,1,.8.3,1.067,1.067,0,0,1,.273.742,1.032,1.032,0,0,1-.273.732,1.043,1.043,0,0,1-.8.293,1.026,1.026,0,0,1-.8-.293A1.043,1.043,0,0,1,45.039,34.631Zm4.4,8A6.19,6.19,0,0,1,50.6,38.718a3.921,3.921,0,0,1,5.957-.21V33h1.807V48H56.7l-.088-1.133A3.679,3.679,0,0,1,53.594,48.2a3.609,3.609,0,0,1-2.993-1.5,6.26,6.26,0,0,1-1.157-3.926Zm1.807.205a4.687,4.687,0,0,0,.742,2.813,2.4,2.4,0,0,0,2.051,1.016,2.636,2.636,0,0,0,2.51-1.543V40.266a2.656,2.656,0,0,0-2.49-1.494,2.411,2.411,0,0,0-2.07,1.025A5.16,5.16,0,0,0,51.25,42.834ZM67.686,48a3.8,3.8,0,0,1-.254-1.113A4.031,4.031,0,0,1,64.424,48.2a3.73,3.73,0,0,1-2.563-.884,2.859,2.859,0,0,1-1-2.241,2.987,2.987,0,0,1,1.255-2.563,5.916,5.916,0,0,1,3.53-.913H67.4v-.83a2.029,2.029,0,0,0-.566-1.509,2.276,2.276,0,0,0-1.67-.562,2.634,2.634,0,0,0-1.621.488,1.439,1.439,0,0,0-.654,1.182H61.074a2.493,2.493,0,0,1,.562-1.528,3.832,3.832,0,0,1,1.523-1.167,5.125,5.125,0,0,1,2.114-.43,4.177,4.177,0,0,1,2.861.913,3.294,3.294,0,0,1,1.074,2.515v4.863a5.946,5.946,0,0,0,.371,2.314V48Zm-3-1.377a3.175,3.175,0,0,0,1.611-.439,2.658,2.658,0,0,0,1.1-1.143V42.873H65.986q-3.32,0-3.32,1.943a1.645,1.645,0,0,0,.566,1.328A2.177,2.177,0,0,0,64.688,46.623Zm9.8-11.748v2.559h1.973v1.4H74.492v6.553a1.464,1.464,0,0,0,.264.952,1.11,1.11,0,0,0,.9.317,4.374,4.374,0,0,0,.859-.117V48a5.238,5.238,0,0,1-1.387.2,2.25,2.25,0,0,1-1.826-.732,3.147,3.147,0,0,1-.615-2.08V38.83H70.762v-1.4h1.924V34.875ZM77.9,42.619a6.241,6.241,0,0,1,.61-2.793,4.553,4.553,0,0,1,1.7-1.914,4.626,4.626,0,0,1,2.485-.674,4.456,4.456,0,0,1,3.491,1.494,5.748,5.748,0,0,1,1.333,3.975v.127a6.3,6.3,0,0,1-.591,2.769,4.486,4.486,0,0,1-1.689,1.909,4.679,4.679,0,0,1-2.524.684A4.445,4.445,0,0,1,79.233,46.7,5.719,5.719,0,0,1,77.9,42.746Zm1.816.215a4.52,4.52,0,0,0,.815,2.822,2.763,2.763,0,0,0,4.37-.015,4.943,4.943,0,0,0,.811-3.022,4.513,4.513,0,0,0-.825-2.817A2.623,2.623,0,0,0,82.7,38.723a2.594,2.594,0,0,0-2.158,1.064A4.906,4.906,0,0,0,79.717,42.834ZM95.938,45.2a1.33,1.33,0,0,0-.552-1.138,5.311,5.311,0,0,0-1.924-.7,9.1,9.1,0,0,1-2.178-.7,3.1,3.1,0,0,1-1.191-.977,2.336,2.336,0,0,1-.386-1.348,2.741,2.741,0,0,1,1.1-2.2,4.291,4.291,0,0,1,2.808-.9,4.415,4.415,0,0,1,2.915.928,2.947,2.947,0,0,1,1.118,2.373H95.83a1.631,1.631,0,0,0-.63-1.279,2.36,2.36,0,0,0-1.587-.537,2.47,2.47,0,0,0-1.543.43,1.353,1.353,0,0,0-.557,1.123,1.1,1.1,0,0,0,.518.986,6.368,6.368,0,0,0,1.87.635,9.744,9.744,0,0,1,2.192.723,3.2,3.2,0,0,1,1.245,1.011,2.485,2.485,0,0,1,.405,1.44,2.7,2.7,0,0,1-1.133,2.271,4.752,4.752,0,0,1-2.939.854,5.321,5.321,0,0,1-2.246-.449A3.653,3.653,0,0,1,89.9,46.491a3.025,3.025,0,0,1-.552-1.743h1.807a1.87,1.87,0,0,0,.728,1.44,2.822,2.822,0,0,0,1.792.532,2.913,2.913,0,0,0,1.646-.415A1.275,1.275,0,0,0,95.938,45.2Z" transform="translate(432.96 2848.074)" fill="#12263f"/>
    <path id="Trazado_1262222" data-name="Trazado 1262222" d="M9.561,15.443h1.445v2.539H9.561V21H6.27V17.982H.771l-.2-2.012L6.27,6.811V6.781H9.561Zm-5.85,0H6.27V11.068l-.205.332Zm10.83,2.363a1.874,1.874,0,0,1,1.3.464,1.619,1.619,0,0,1,0,2.373,2.049,2.049,0,0,1-2.6,0,1.618,1.618,0,0,1,0-2.363A1.858,1.858,0,0,1,14.541,17.807Zm20.176-1.318a5.231,5.231,0,0,1-1.665,3.481A5.457,5.457,0,0,1,29.326,21.2a5.01,5.01,0,0,1-4.038-1.807,7.268,7.268,0,0,1-1.519-4.834V13.188A8.1,8.1,0,0,1,24.478,9.7a5.288,5.288,0,0,1,2.007-2.31,5.588,5.588,0,0,1,3.008-.806,5.138,5.138,0,0,1,3.633,1.265,5.294,5.294,0,0,1,1.592,3.5H32.832a4.067,4.067,0,0,0-1.06-2.461,3.212,3.212,0,0,0-2.28-.762,3.356,3.356,0,0,0-2.817,1.328,6.093,6.093,0,0,0-1.021,3.779v1.377a6.263,6.263,0,0,0,.967,3.682,3.125,3.125,0,0,0,2.705,1.367,3.608,3.608,0,0,0,2.4-.708,3.929,3.929,0,0,0,1.108-2.466Zm1.8-.869a6.241,6.241,0,0,1,.61-2.793,4.553,4.553,0,0,1,1.7-1.914,4.626,4.626,0,0,1,2.485-.674A4.456,4.456,0,0,1,44.8,11.732a5.748,5.748,0,0,1,1.333,3.975v.127a6.3,6.3,0,0,1-.591,2.769,4.486,4.486,0,0,1-1.689,1.909,4.679,4.679,0,0,1-2.524.684A4.445,4.445,0,0,1,37.847,19.7a5.719,5.719,0,0,1-1.333-3.955Zm1.816.215a4.52,4.52,0,0,0,.815,2.822,2.763,2.763,0,0,0,4.37-.015,4.943,4.943,0,0,0,.811-3.022A4.513,4.513,0,0,0,43.5,12.8a2.623,2.623,0,0,0-2.192-1.079,2.594,2.594,0,0,0-2.158,1.064A4.906,4.906,0,0,0,38.33,15.834Zm11.777-5.4.059,1.328a3.851,3.851,0,0,1,3.164-1.523q3.35,0,3.379,3.779V21H54.9V14.008a2.432,2.432,0,0,0-.522-1.689,2.094,2.094,0,0,0-1.6-.547,2.607,2.607,0,0,0-1.543.469,3.183,3.183,0,0,0-1.035,1.23V21H48.4V10.434ZM61.885,7.875v2.559h1.973v1.4H61.885v6.553a1.464,1.464,0,0,0,.264.952,1.11,1.11,0,0,0,.9.317,4.374,4.374,0,0,0,.859-.117V21a5.238,5.238,0,0,1-1.387.2,2.25,2.25,0,0,1-1.826-.732,3.147,3.147,0,0,1-.615-2.08V11.83H58.154v-1.4h1.924V7.875ZM72.49,21a3.8,3.8,0,0,1-.254-1.113A4.031,4.031,0,0,1,69.229,21.2a3.73,3.73,0,0,1-2.563-.884,2.859,2.859,0,0,1-1-2.241,2.987,2.987,0,0,1,1.255-2.563,5.916,5.916,0,0,1,3.53-.913h1.758v-.83a2.029,2.029,0,0,0-.566-1.509,2.276,2.276,0,0,0-1.67-.562,2.634,2.634,0,0,0-1.621.488,1.439,1.439,0,0,0-.654,1.182H65.879a2.493,2.493,0,0,1,.562-1.528,3.832,3.832,0,0,1,1.523-1.167,5.125,5.125,0,0,1,2.114-.43,4.177,4.177,0,0,1,2.861.913,3.294,3.294,0,0,1,1.074,2.515v4.863a5.946,5.946,0,0,0,.371,2.314V21Zm-3-1.377a3.175,3.175,0,0,0,1.611-.439,2.658,2.658,0,0,0,1.1-1.143V15.873H70.791q-3.32,0-3.32,1.943a1.645,1.645,0,0,0,.566,1.328A2.177,2.177,0,0,0,69.492,19.623Zm11.592.1a2.6,2.6,0,0,0,1.689-.586,2.061,2.061,0,0,0,.8-1.465h1.709a3.276,3.276,0,0,1-.625,1.729,4.116,4.116,0,0,1-1.538,1.309,4.438,4.438,0,0,1-2.036.488,4.353,4.353,0,0,1-3.433-1.44,5.737,5.737,0,0,1-1.274-3.94v-.3a6.361,6.361,0,0,1,.566-2.744A4.314,4.314,0,0,1,78.569,10.9a4.619,4.619,0,0,1,2.5-.664A4.238,4.238,0,0,1,84.028,11.3a3.8,3.8,0,0,1,1.255,2.764H83.574a2.49,2.49,0,0,0-.776-1.685,2.415,2.415,0,0,0-1.724-.659,2.529,2.529,0,0,0-2.134.991,4.655,4.655,0,0,0-.757,2.866v.342a4.562,4.562,0,0,0,.752,2.813A2.541,2.541,0,0,0,81.084,19.721ZM89.766,7.875v2.559h1.973v1.4H89.766v6.553a1.464,1.464,0,0,0,.264.952,1.11,1.11,0,0,0,.9.317,4.374,4.374,0,0,0,.859-.117V21a5.238,5.238,0,0,1-1.387.2,2.25,2.25,0,0,1-1.826-.732,3.147,3.147,0,0,1-.615-2.08V11.83H86.035v-1.4h1.924V7.875Zm3.408,7.744a6.241,6.241,0,0,1,.61-2.793,4.553,4.553,0,0,1,1.7-1.914,4.626,4.626,0,0,1,2.485-.674,4.456,4.456,0,0,1,3.491,1.494,5.748,5.748,0,0,1,1.333,3.975v.127A6.3,6.3,0,0,1,102.2,18.6a4.486,4.486,0,0,1-1.689,1.909,4.679,4.679,0,0,1-2.524.684A4.445,4.445,0,0,1,94.507,19.7a5.719,5.719,0,0,1-1.333-3.955Zm1.816.215a4.52,4.52,0,0,0,.815,2.822,2.763,2.763,0,0,0,4.37-.015,4.943,4.943,0,0,0,.811-3.022,4.513,4.513,0,0,0-.825-2.817,2.623,2.623,0,0,0-2.192-1.079,2.594,2.594,0,0,0-2.158,1.064A4.906,4.906,0,0,0,94.99,15.834ZM111.973,21h-1.807V10.434h1.807ZM110.02,7.631a1.078,1.078,0,0,1,.269-.742,1.008,1.008,0,0,1,.8-.3,1.024,1.024,0,0,1,.8.3,1.067,1.067,0,0,1,.273.742,1.032,1.032,0,0,1-.273.732,1.043,1.043,0,0,1-.8.293,1.026,1.026,0,0,1-.8-.293A1.043,1.043,0,0,1,110.02,7.631Zm6.553,2.8.059,1.328a3.85,3.85,0,0,1,3.164-1.523q3.35,0,3.379,3.779V21h-1.807V14.008a2.432,2.432,0,0,0-.522-1.689,2.094,2.094,0,0,0-1.6-.547,2.607,2.607,0,0,0-1.543.469,3.183,3.183,0,0,0-1.035,1.23V21h-1.807V10.434ZM127.861,21h-1.807V10.434h1.807ZM125.908,7.631a1.078,1.078,0,0,1,.269-.742,1.008,1.008,0,0,1,.8-.3,1.024,1.024,0,0,1,.8.3,1.067,1.067,0,0,1,.273.742,1.032,1.032,0,0,1-.273.732,1.043,1.043,0,0,1-.8.293,1.026,1.026,0,0,1-.8-.293A1.043,1.043,0,0,1,125.908,7.631Zm9.082,12.09a2.6,2.6,0,0,0,1.689-.586,2.061,2.061,0,0,0,.8-1.465h1.709a3.276,3.276,0,0,1-.625,1.729,4.116,4.116,0,0,1-1.538,1.309,4.438,4.438,0,0,1-2.036.488,4.353,4.353,0,0,1-3.433-1.44,5.737,5.737,0,0,1-1.274-3.94v-.3a6.361,6.361,0,0,1,.566-2.744,4.314,4.314,0,0,1,1.626-1.865,4.619,4.619,0,0,1,2.5-.664,4.238,4.238,0,0,1,2.954,1.064,3.8,3.8,0,0,1,1.255,2.764H137.48a2.49,2.49,0,0,0-.776-1.685,2.415,2.415,0,0,0-1.724-.659,2.529,2.529,0,0,0-2.134.991,4.655,4.655,0,0,0-.757,2.866v.342a4.562,4.562,0,0,0,.752,2.813A2.541,2.541,0,0,0,134.99,19.721ZM143.184,21h-1.807V10.434h1.807ZM141.23,7.631a1.078,1.078,0,0,1,.269-.742,1.008,1.008,0,0,1,.8-.3,1.024,1.024,0,0,1,.8.3,1.067,1.067,0,0,1,.273.742,1.032,1.032,0,0,1-.273.732,1.043,1.043,0,0,1-.8.293,1.026,1.026,0,0,1-.8-.293A1.043,1.043,0,0,1,141.23,7.631ZM152.6,21a3.8,3.8,0,0,1-.254-1.113,4.031,4.031,0,0,1-3.008,1.309,3.73,3.73,0,0,1-2.563-.884,2.859,2.859,0,0,1-1-2.241,2.987,2.987,0,0,1,1.255-2.563,5.916,5.916,0,0,1,3.53-.913h1.758v-.83a2.029,2.029,0,0,0-.566-1.509,2.276,2.276,0,0,0-1.67-.562,2.634,2.634,0,0,0-1.621.488,1.439,1.439,0,0,0-.654,1.182h-1.816a2.493,2.493,0,0,1,.562-1.528,3.832,3.832,0,0,1,1.523-1.167,5.125,5.125,0,0,1,2.114-.43,4.177,4.177,0,0,1,2.861.913,3.294,3.294,0,0,1,1.074,2.515v4.863a5.946,5.946,0,0,0,.371,2.314V21Zm-3-1.377a3.175,3.175,0,0,0,1.611-.439,2.658,2.658,0,0,0,1.1-1.143V15.873H150.9q-3.32,0-3.32,1.943a1.645,1.645,0,0,0,.566,1.328A2.177,2.177,0,0,0,149.6,19.623ZM158.916,21h-1.807V6h1.807Z" transform="translate(708.205 2848.074)" fill="#12263f"/>
    <path id="Trazado_1262223" data-name="Trazado 1262223" d="M1.064,14.047l.869-7.266h8.311V9.34H4.609l-.322,2.822A3.892,3.892,0,0,1,5.21,11.8a4.228,4.228,0,0,1,1.118-.156A4.171,4.171,0,0,1,9.585,12.9a5.055,5.055,0,0,1,1.138,3.521,5.046,5.046,0,0,1-.61,2.476A4.2,4.2,0,0,1,8.4,20.6a5.411,5.411,0,0,1-2.607.6,5.818,5.818,0,0,1-2.51-.552A4.5,4.5,0,0,1,1.445,19.13a3.68,3.68,0,0,1-.654-2.173h3.3a1.873,1.873,0,0,0,.5,1.24,1.579,1.579,0,0,0,1.182.459q1.66,0,1.66-2.461,0-2.275-2.031-2.275a2.025,2.025,0,0,0-1.719.742Zm13.477,3.76a1.874,1.874,0,0,1,1.3.464,1.619,1.619,0,0,1,0,2.373,2.049,2.049,0,0,1-2.6,0,1.618,1.618,0,0,1,0-2.363A1.858,1.858,0,0,1,14.541,17.807Zm11.592-2.373V21H24.258V6.781H29.5a5.269,5.269,0,0,1,3.657,1.191,4.039,4.039,0,0,1,1.323,3.154,3.986,3.986,0,0,1-1.294,3.188,5.5,5.5,0,0,1-3.706,1.118Zm0-1.533H29.5a3.372,3.372,0,0,0,2.3-.708,2.586,2.586,0,0,0,.8-2.046,2.672,2.672,0,0,0-.8-2.031,3.159,3.159,0,0,0-2.2-.791H26.133ZM41.7,12.055a5.414,5.414,0,0,0-.889-.068A2.381,2.381,0,0,0,38.4,13.5V21H36.592V10.434H38.35l.029,1.221a2.813,2.813,0,0,1,2.52-1.416,1.846,1.846,0,0,1,.8.137ZM47.744,21.2a4.617,4.617,0,0,1-3.5-1.411A5.237,5.237,0,0,1,42.9,16.01v-.332a6.341,6.341,0,0,1,.6-2.808,4.685,4.685,0,0,1,1.68-1.934,4.223,4.223,0,0,1,2.339-.7,3.957,3.957,0,0,1,3.2,1.357,5.877,5.877,0,0,1,1.143,3.887v.752H44.707a3.756,3.756,0,0,0,.913,2.524,2.87,2.87,0,0,0,2.222.962,3.147,3.147,0,0,0,1.621-.391,4.073,4.073,0,0,0,1.162-1.035l1.1.859A4.437,4.437,0,0,1,47.744,21.2Zm-.225-9.473a2.41,2.41,0,0,0-1.836.8,3.868,3.868,0,0,0-.918,2.231h5.293v-.137a3.441,3.441,0,0,0-.742-2.134A2.269,2.269,0,0,0,47.52,11.723Zm15.361,4.111a6.327,6.327,0,0,1-1.1,3.887A3.537,3.537,0,0,1,58.789,21.2a3.875,3.875,0,0,1-3.027-1.221v5.088H53.955V10.434h1.65l.088,1.172a3.722,3.722,0,0,1,3.066-1.367,3.6,3.6,0,0,1,3.013,1.436,6.4,6.4,0,0,1,1.108,3.994Zm-1.807-.205a4.669,4.669,0,0,0-.762-2.822,2.454,2.454,0,0,0-2.09-1.035,2.656,2.656,0,0,0-2.461,1.455v5.049a2.661,2.661,0,0,0,2.48,1.445,2.442,2.442,0,0,0,2.065-1.03A5.1,5.1,0,0,0,61.074,15.629ZM71.7,21a3.8,3.8,0,0,1-.254-1.113A4.031,4.031,0,0,1,68.438,21.2a3.73,3.73,0,0,1-2.563-.884,2.859,2.859,0,0,1-1-2.241,2.987,2.987,0,0,1,1.255-2.563,5.916,5.916,0,0,1,3.53-.913h1.758v-.83a2.029,2.029,0,0,0-.566-1.509,2.276,2.276,0,0,0-1.67-.562,2.634,2.634,0,0,0-1.621.488,1.439,1.439,0,0,0-.654,1.182H65.088a2.493,2.493,0,0,1,.562-1.528,3.832,3.832,0,0,1,1.523-1.167,5.125,5.125,0,0,1,2.114-.43,4.177,4.177,0,0,1,2.861.913,3.294,3.294,0,0,1,1.074,2.515v4.863a5.946,5.946,0,0,0,.371,2.314V21Zm-3-1.377a3.175,3.175,0,0,0,1.611-.439,2.658,2.658,0,0,0,1.1-1.143V15.873H70q-3.32,0-3.32,1.943a1.645,1.645,0,0,0,.566,1.328A2.177,2.177,0,0,0,68.7,19.623Zm12.461-7.568a5.414,5.414,0,0,0-.889-.068A2.381,2.381,0,0,0,77.861,13.5V21H76.055V10.434h1.758l.029,1.221a2.813,2.813,0,0,1,2.52-1.416,1.846,1.846,0,0,1,.8.137ZM88.955,21a3.8,3.8,0,0,1-.254-1.113A4.031,4.031,0,0,1,85.693,21.2a3.73,3.73,0,0,1-2.563-.884,2.859,2.859,0,0,1-1-2.241,2.987,2.987,0,0,1,1.255-2.563,5.916,5.916,0,0,1,3.53-.913h1.758v-.83a2.029,2.029,0,0,0-.566-1.509,2.276,2.276,0,0,0-1.67-.562,2.634,2.634,0,0,0-1.621.488,1.439,1.439,0,0,0-.654,1.182H82.344a2.493,2.493,0,0,1,.562-1.528,3.832,3.832,0,0,1,1.523-1.167,5.125,5.125,0,0,1,2.114-.43,4.177,4.177,0,0,1,2.861.913,3.294,3.294,0,0,1,1.074,2.515v4.863a5.946,5.946,0,0,0,.371,2.314V21Zm-3-1.377a3.175,3.175,0,0,0,1.611-.439,2.658,2.658,0,0,0,1.1-1.143V15.873H87.256q-3.32,0-3.32,1.943a1.645,1.645,0,0,0,.566,1.328A2.177,2.177,0,0,0,85.957,19.623Zm11.592.1a2.6,2.6,0,0,0,1.689-.586,2.061,2.061,0,0,0,.8-1.465h1.709a3.276,3.276,0,0,1-.625,1.729,4.116,4.116,0,0,1-1.538,1.309,4.438,4.438,0,0,1-2.036.488,4.353,4.353,0,0,1-3.433-1.44,5.737,5.737,0,0,1-1.274-3.94v-.3a6.361,6.361,0,0,1,.566-2.744A4.314,4.314,0,0,1,95.034,10.9a4.619,4.619,0,0,1,2.5-.664,4.238,4.238,0,0,1,2.954,1.064,3.8,3.8,0,0,1,1.255,2.764h-1.709a2.49,2.49,0,0,0-.776-1.685,2.415,2.415,0,0,0-1.724-.659,2.529,2.529,0,0,0-2.134.991,4.655,4.655,0,0,0-.757,2.866v.342a4.562,4.562,0,0,0,.752,2.813A2.541,2.541,0,0,0,97.549,19.721ZM105.742,21h-1.807V10.434h1.807ZM103.789,7.631a1.078,1.078,0,0,1,.269-.742,1.008,1.008,0,0,1,.8-.3,1.024,1.024,0,0,1,.8.3,1.067,1.067,0,0,1,.273.742,1.032,1.032,0,0,1-.273.732,1.043,1.043,0,0,1-.8.293,1.026,1.026,0,0,1-.8-.293A1.043,1.043,0,0,1,103.789,7.631Zm4.365,7.988a6.241,6.241,0,0,1,.61-2.793,4.553,4.553,0,0,1,1.7-1.914,4.626,4.626,0,0,1,2.485-.674,4.456,4.456,0,0,1,3.491,1.494,5.748,5.748,0,0,1,1.333,3.975v.127a6.3,6.3,0,0,1-.591,2.769,4.486,4.486,0,0,1-1.689,1.909,4.679,4.679,0,0,1-2.524.684,4.445,4.445,0,0,1-3.481-1.494,5.719,5.719,0,0,1-1.333-3.955Zm1.816.215a4.52,4.52,0,0,0,.815,2.822,2.763,2.763,0,0,0,4.37-.015,4.943,4.943,0,0,0,.811-3.022,4.513,4.513,0,0,0-.825-2.817,2.623,2.623,0,0,0-2.192-1.079,2.594,2.594,0,0,0-2.158,1.064A4.906,4.906,0,0,0,109.971,15.834ZM113.77,6h2.188L113.34,8.871h-1.455Zm7.979,4.434.059,1.328a3.85,3.85,0,0,1,3.164-1.523q3.35,0,3.379,3.779V21h-1.807V14.008a2.432,2.432,0,0,0-.522-1.689,2.094,2.094,0,0,0-1.6-.547,2.607,2.607,0,0,0-1.543.469,3.183,3.183,0,0,0-1.035,1.23V21h-1.807V10.434ZM.928,42.629A6.19,6.19,0,0,1,2.08,38.718,3.644,3.644,0,0,1,5.1,37.238a3.665,3.665,0,0,1,2.939,1.27V33H9.844V48H8.184L8.1,46.867A3.679,3.679,0,0,1,5.078,48.2a3.609,3.609,0,0,1-2.993-1.5A6.26,6.26,0,0,1,.928,42.766Zm1.807.205a4.687,4.687,0,0,0,.742,2.813,2.4,2.4,0,0,0,2.051,1.016,2.636,2.636,0,0,0,2.51-1.543V40.266a2.656,2.656,0,0,0-2.49-1.494A2.411,2.411,0,0,0,3.477,39.8,5.16,5.16,0,0,0,2.734,42.834Zm14.3,5.361a4.617,4.617,0,0,1-3.5-1.411,5.237,5.237,0,0,1-1.348-3.774v-.332a6.341,6.341,0,0,1,.6-2.808,4.685,4.685,0,0,1,1.68-1.934,4.223,4.223,0,0,1,2.339-.7,3.957,3.957,0,0,1,3.2,1.357,5.877,5.877,0,0,1,1.143,3.887v.752H13.994a3.756,3.756,0,0,0,.913,2.524,2.87,2.87,0,0,0,2.222.962,3.147,3.147,0,0,0,1.621-.391,4.073,4.073,0,0,0,1.162-1.035l1.1.859A4.437,4.437,0,0,1,17.031,48.2Zm-.225-9.473a2.41,2.41,0,0,0-1.836.8,3.868,3.868,0,0,0-.918,2.231h5.293v-.137a3.441,3.441,0,0,0-.742-2.134A2.269,2.269,0,0,0,16.807,38.723ZM30.156,48H28.35V33h1.807Zm9.414,0a3.8,3.8,0,0,1-.254-1.113A4.031,4.031,0,0,1,36.309,48.2a3.73,3.73,0,0,1-2.563-.884,2.859,2.859,0,0,1-1-2.241A2.987,2.987,0,0,1,34,42.507a5.916,5.916,0,0,1,3.53-.913h1.758v-.83a2.029,2.029,0,0,0-.566-1.509,2.276,2.276,0,0,0-1.67-.562,2.634,2.634,0,0,0-1.621.488,1.439,1.439,0,0,0-.654,1.182H32.959a2.493,2.493,0,0,1,.562-1.528,3.832,3.832,0,0,1,1.523-1.167,5.125,5.125,0,0,1,2.114-.43,4.177,4.177,0,0,1,2.861.913,3.294,3.294,0,0,1,1.074,2.515v4.863a5.946,5.946,0,0,0,.371,2.314V48Zm-3-1.377a3.175,3.175,0,0,0,1.611-.439,2.658,2.658,0,0,0,1.1-1.143V42.873H37.871q-3.32,0-3.32,1.943a1.645,1.645,0,0,0,.566,1.328A2.177,2.177,0,0,0,36.572,46.623ZM53.262,48.2a4.617,4.617,0,0,1-3.5-1.411,5.237,5.237,0,0,1-1.348-3.774v-.332a6.341,6.341,0,0,1,.6-2.808,4.685,4.685,0,0,1,1.68-1.934,4.223,4.223,0,0,1,2.339-.7,3.957,3.957,0,0,1,3.2,1.357,5.877,5.877,0,0,1,1.143,3.887v.752H50.225a3.756,3.756,0,0,0,.913,2.524,2.87,2.87,0,0,0,2.222.962,3.147,3.147,0,0,0,1.621-.391,4.073,4.073,0,0,0,1.162-1.035l1.1.859A4.437,4.437,0,0,1,53.262,48.2Zm-.225-9.473a2.41,2.41,0,0,0-1.836.8,3.868,3.868,0,0,0-.918,2.231h5.293v-.137a3.441,3.441,0,0,0-.742-2.134A2.269,2.269,0,0,0,53.037,38.723Zm8.145-1.289.059,1.328A3.851,3.851,0,0,1,64.4,37.238q3.35,0,3.379,3.779V48H65.977V41.008a2.432,2.432,0,0,0-.522-1.689,2.094,2.094,0,0,0-1.6-.547,2.607,2.607,0,0,0-1.543.469,3.183,3.183,0,0,0-1.035,1.23V48H59.473V37.434Zm11.777-2.559v2.559h1.973v1.4H72.959v6.553a1.464,1.464,0,0,0,.264.952,1.11,1.11,0,0,0,.9.317,4.374,4.374,0,0,0,.859-.117V48a5.238,5.238,0,0,1-1.387.2,2.25,2.25,0,0,1-1.826-.732,3.147,3.147,0,0,1-.615-2.08V38.83H69.229v-1.4h1.924V34.875Zm9.189,4.18a5.414,5.414,0,0,0-.889-.068A2.381,2.381,0,0,0,78.848,40.5V48H77.041V37.434H78.8l.029,1.221a2.813,2.813,0,0,1,2.52-1.416,1.846,1.846,0,0,1,.8.137ZM88.193,48.2a4.617,4.617,0,0,1-3.5-1.411A5.237,5.237,0,0,1,83.35,43.01v-.332a6.341,6.341,0,0,1,.6-2.808,4.685,4.685,0,0,1,1.68-1.934,4.223,4.223,0,0,1,2.339-.7,3.957,3.957,0,0,1,3.2,1.357,5.877,5.877,0,0,1,1.143,3.887v.752H85.156a3.756,3.756,0,0,0,.913,2.524,2.87,2.87,0,0,0,2.222.962,3.147,3.147,0,0,0,1.621-.391,4.073,4.073,0,0,0,1.162-1.035l1.1.859A4.437,4.437,0,0,1,88.193,48.2Zm-.225-9.473a2.41,2.41,0,0,0-1.836.8,3.869,3.869,0,0,0-.918,2.231h5.293v-.137a3.441,3.441,0,0,0-.742-2.134A2.269,2.269,0,0,0,87.969,38.723Zm9.795,6.826,2.617-8.115h1.846L98.438,48H97.061L93.232,37.434h1.846ZM105.928,48h-1.807V37.434h1.807Zm-1.953-13.369a1.078,1.078,0,0,1,.269-.742,1.008,1.008,0,0,1,.8-.3,1.024,1.024,0,0,1,.8.3,1.067,1.067,0,0,1,.273.742,1.032,1.032,0,0,1-.273.732,1.043,1.043,0,0,1-.8.293,1.026,1.026,0,0,1-.8-.293A1.043,1.043,0,0,1,103.975,34.631Zm11,10.566a1.33,1.33,0,0,0-.552-1.138,5.311,5.311,0,0,0-1.924-.7,9.1,9.1,0,0,1-2.178-.7,3.1,3.1,0,0,1-1.191-.977,2.336,2.336,0,0,1-.386-1.348,2.741,2.741,0,0,1,1.1-2.2,4.291,4.291,0,0,1,2.808-.9,4.415,4.415,0,0,1,2.915.928,2.947,2.947,0,0,1,1.118,2.373h-1.816a1.631,1.631,0,0,0-.63-1.279,2.36,2.36,0,0,0-1.587-.537,2.47,2.47,0,0,0-1.543.43,1.353,1.353,0,0,0-.557,1.123,1.1,1.1,0,0,0,.518.986,6.368,6.368,0,0,0,1.87.635,9.744,9.744,0,0,1,2.192.723,3.2,3.2,0,0,1,1.245,1.011,2.485,2.485,0,0,1,.405,1.44,2.7,2.7,0,0,1-1.133,2.271,4.752,4.752,0,0,1-2.939.854,5.321,5.321,0,0,1-2.246-.449,3.653,3.653,0,0,1-1.528-1.255,3.025,3.025,0,0,1-.552-1.743h1.807a1.87,1.87,0,0,0,.728,1.44,2.822,2.822,0,0,0,1.792.532,2.913,2.913,0,0,0,1.646-.415A1.275,1.275,0,0,0,114.971,45.2Zm6.611-10.322v2.559h1.973v1.4h-1.973v6.553a1.464,1.464,0,0,0,.264.952,1.11,1.11,0,0,0,.9.317,4.374,4.374,0,0,0,.859-.117V48a5.238,5.238,0,0,1-1.387.2,2.25,2.25,0,0,1-1.826-.732,3.147,3.147,0,0,1-.615-2.08V38.83h-1.924v-1.4h1.924V34.875ZM132.188,48a3.8,3.8,0,0,1-.254-1.113,4.031,4.031,0,0,1-3.008,1.309,3.73,3.73,0,0,1-2.563-.884,2.859,2.859,0,0,1-1-2.241,2.987,2.987,0,0,1,1.255-2.563,5.916,5.916,0,0,1,3.53-.913H131.9v-.83a2.029,2.029,0,0,0-.566-1.509,2.276,2.276,0,0,0-1.67-.562,2.634,2.634,0,0,0-1.621.488,1.439,1.439,0,0,0-.654,1.182h-1.816a2.493,2.493,0,0,1,.562-1.528,3.832,3.832,0,0,1,1.523-1.167,5.125,5.125,0,0,1,2.114-.43,4.177,4.177,0,0,1,2.861.913,3.294,3.294,0,0,1,1.074,2.515v4.863a5.946,5.946,0,0,0,.371,2.314V48Zm-3-1.377a3.175,3.175,0,0,0,1.611-.439,2.658,2.658,0,0,0,1.1-1.143V42.873h-1.416q-3.32,0-3.32,1.943a1.645,1.645,0,0,0,.566,1.328A2.177,2.177,0,0,0,129.189,46.623Z" transform="translate(1002.885 2848.074)" fill="#12263f"/>
  </g>
</svg>
