<svg xmlns="http://www.w3.org/2000/svg" xmlns:xlink="http://www.w3.org/1999/xlink" width="610" height="387.171" viewBox="0 0 610 387.171">
  <defs>
    <clipPath id="clip-path">
      <rect id="Rectángulo_455357" data-name="Rectángulo 455357" width="591.458" height="387.171" fill="none"/>
    </clipPath>
  </defs>
  <g id="Grupo_1102944" data-name="Grupo 1102944" transform="translate(-810 -1057.808)">
    <g id="Grupo_1102867" data-name="Grupo 1102867" transform="translate(828.542 1057.808)">
      <rect id="Rectángulo_455352" data-name="Rectángulo 455352" width="142.806" height="125.6" transform="translate(91.538 259.861)" fill="#e6f3ff"/>
      <rect id="Rectángulo_455353" data-name="Rectángulo 455353" width="302.076" height="179.016" transform="translate(-18.542)" fill="#e6f3ff"/>
      <g id="Grupo_1102866" data-name="Grupo 1102866">
        <g id="Grupo_1102865" data-name="Grupo 1102865" clip-path="url(#clip-path)">
          <path id="Trazado_991616" data-name="Trazado 991616" d="M1794.9,472.334h-14.7a4.92,4.92,0,0,1-4.92-4.92V435.387a4.921,4.921,0,0,1,4.92-4.92h14.7a4.92,4.92,0,0,1,4.92,4.92v32.026a4.92,4.92,0,0,1-4.92,4.92" transform="translate(-1462.852 -354.71)" fill="#1e5098"/>
          <path id="Trazado_991617" data-name="Trazado 991617" d="M1794.9,808.669h-14.7a4.92,4.92,0,0,1-4.92-4.92V771.722a4.92,4.92,0,0,1,4.92-4.92h14.7a4.92,4.92,0,0,1,4.92,4.92v32.026a4.92,4.92,0,0,1-4.92,4.92" transform="translate(-1462.852 -631.855)" fill="#1e5098"/>
          <path id="Trazado_991618" data-name="Trazado 991618" d="M1873.783,428.47h237.551a8.268,8.268,0,0,0,8.268-8.268V61.383a8.268,8.268,0,0,0-8.268-8.268H1873.783a8.268,8.268,0,0,0-8.268,8.268V420.2a8.268,8.268,0,0,0,8.268,8.268" transform="translate(-1537.209 -43.767)" fill="#1e5098"/>
          <path id="Trazado_991619" data-name="Trazado 991619" d="M2140.457,190.893H1947.566a8.221,8.221,0,0,0-8.221,8.221V496.245a8.221,8.221,0,0,0,8.221,8.221h192.891a8.221,8.221,0,0,0,8.221-8.221V199.114a8.221,8.221,0,0,0-8.221-8.221" transform="translate(-1598.046 -157.298)" fill="#1e5098"/>
          <path id="Trazado_991620" data-name="Trazado 991620" d="M2185.278,323.824H2012.342a7.353,7.353,0,0,0-7.371,7.335v265.1a7.353,7.353,0,0,0,7.371,7.335h172.936a7.353,7.353,0,0,0,7.371-7.335v-265.1a7.353,7.353,0,0,0-7.371-7.335" transform="translate(-1652.122 -266.835)" fill="#e6f3ff"/>
          <path id="Trazado_991621" data-name="Trazado 991621" d="M2062.161,53.115H1824.516a8.221,8.221,0,0,0-8.221,8.221V420.249a8.221,8.221,0,0,0,8.221,8.221h237.645a8.221,8.221,0,0,0,8.221-8.221V61.336a8.221,8.221,0,0,0-8.221-8.221m-14.878,329.6a8.221,8.221,0,0,1-8.221,8.221H1846.171a8.221,8.221,0,0,1-8.221-8.221V85.583a8.221,8.221,0,0,1,8.221-8.221h192.891a8.221,8.221,0,0,1,8.221,8.221Z" transform="translate(-1496.651 -43.767)" fill="#0c3359"/>
          <path id="Trazado_991622" data-name="Trazado 991622" d="M2405.177,2035.359h-51.127a5.566,5.566,0,0,1-5.565-5.566V2019.27a5.566,5.566,0,0,1,5.565-5.566h51.127a5.566,5.566,0,0,1,5.566,5.566v10.524a5.566,5.566,0,0,1-5.566,5.566" transform="translate(-1935.181 -1659.318)" fill="#1e5098"/>
          <path id="Trazado_991623" data-name="Trazado 991623" d="M2380.567,2035.359h-51.127a5.566,5.566,0,0,1-5.565-5.566V2019.27a5.566,5.566,0,0,1,5.565-5.566h51.127a5.566,5.566,0,0,1,5.566,5.566v10.524a5.566,5.566,0,0,1-5.566,5.566" transform="translate(-1914.903 -1659.318)" fill="#1e5098"/>
          <path id="Trazado_991624" data-name="Trazado 991624" d="M2119.817,607.527V748.164h142.924V607.527Z" transform="translate(-1746.757 -500.61)" fill="#a5d9f9"/>
          <path id="Trazado_991625" data-name="Trazado 991625" d="M1671.4,450.776a8.745,8.745,0,0,0,2.323-3.429c1.233-3.354.589-7.258-.03-10.648a118.738,118.738,0,0,0-3.276-11.685q-2.111-7.256-4.078-14.554c-.128-.476-.256-.952-.34-1.438a19.906,19.906,0,0,1-.2-2.328,44.674,44.674,0,0,0-.865-6.8c-.191-.908-.692-1.2-1.665-1.007-.874.175-1.2.869-1.391,1.658a33.624,33.624,0,0,0-.692,3.709c-.1.735.106,2.833-.522,3.247-.138.091-.7-.977-.73-1.08-1.221-4.565-1.633-9.339-3.077-13.836a6.071,6.071,0,0,0-1.476-2.707,6.756,6.756,0,0,0-2.146-1.169c-.04,2.076.079,4.2-.011,6.251a48.942,48.942,0,0,0,.078,6.706c-.195-2.083-.563-4.141-.917-6.2a32.288,32.288,0,0,0-.732-4.659,4.428,4.428,0,0,0-1.155-1.849c-.18-.172-1.433-1.23-1.522-.78a47.089,47.089,0,0,0-1.178,7.572c-.07,2.723-.056,5.45-.083,8.173l-1.706-8.885a10.48,10.48,0,0,0-1.164-3.617,3.579,3.579,0,0,0-3.145-1.834q-.119,8.615-.239,17.23a5.168,5.168,0,0,0-.663-2.036l-1.788-3.659a5.03,5.03,0,0,0-.6-1.011,4.184,4.184,0,0,0-2.574-1.254c.068.012,1.738,10.492,2.094,11.587q3.388,10.431,7.154,20.732c2.236,6.113,4.628,12.294,8.667,17.392,2.293,2.895,4.794,3.661,8.315,4.319a11.623,11.623,0,0,0,7.622-.906,8.632,8.632,0,0,0,1.7-1.21" transform="translate(-1347.958 -319.776)" fill="#ffc7a1"/>
          <path id="Trazado_991626" data-name="Trazado 991626" d="M1757.139,675.034q3.784.119,7.567.223,6.033.166,12.068.291c2.637.053,4.721.129,6.961-1.332,5.514-3.6,10.794-7.632,14.835-12.888q.393-.511.771-1.033c4.571-6.322,8.8-15.575,8.378-23.587-.528-10.113-18.8-11.567-25.834-10.831l-61.505,6.429q-11.013-28.047-20.372-56.705a5.951,5.951,0,0,0-1.505-2.783c-1.388-1.2-3.483-.861-5.268-.445q-11.721,2.731-23.287,6.076a4.1,4.1,0,0,0-1.64.754c-1.1.982-.842,2.738-.491,4.17q5.646,23.031,11.854,45.919,3.134,11.559,6.411,23.078,1.638,5.76,3.312,11.509c1.1,3.786,1.076,5.876,5.089,7.322a30.133,30.133,0,0,0,8.494,1.325q6.986.4,13.972.79,20.085,1.091,40.192,1.72" transform="translate(-1374.052 -471.326)" fill="#88a160"/>
          <path id="Trazado_991627" data-name="Trazado 991627" d="M1676.457,627.079a.242.242,0,0,1-.046-.48c7.435-1.451,14.86-3.531,22.04-5.543,3.351-.939,6.815-1.909,10.236-2.8a.242.242,0,1,1,.122.468c-3.417.893-6.879,1.863-10.228,2.8-7.19,2.014-14.624,4.1-22.078,5.552a.244.244,0,0,1-.047,0" transform="translate(-1381.223 -509.442)" fill="#e6f3ff"/>
          <path id="Trazado_991628" data-name="Trazado 991628" d="M2530.341,246.427c.014-.947,3.818.188,4.181.371a11.229,11.229,0,0,1,3.1,2.4c3.922,4.209,6.663,12.745,1.828,17.311-5.647,5.332-15.219-.228-21.932,2.017-3.987,1.333-6.774,4.594-10.556,6.316a11.213,11.213,0,0,1-7.928.8c-3.687-1.172-6.339-4.819-10.16-5.429-2.8-.447-5.716.856-8.463.147a8.071,8.071,0,0,1-5.157-5.135c-2.337-6.128-1.61-14.307,2.63-19.431a16.282,16.282,0,0,1,11.338-5.585c4.64-.335,8.277,1.279,11.779,4.135-.518-.424.591-2.482.809-2.906a11.989,11.989,0,0,1,2.741-3.209c5.862-5.283,16.1-6.7,22.079-.831a13.313,13.313,0,0,1,2.119,2.722,11.964,11.964,0,0,1,1.591,6.308" transform="translate(-2038.561 -192.479)" fill="#212121"/>
          <path id="Trazado_991629" data-name="Trazado 991629" d="M2204.026,394.1c-1.361,2.154-1.886,5.255-2.152,7.265-1.381,10.458,4.04,20.258,12.363,26.235-1.009.072-1.514-1.177-1.708-2.17A60.58,60.58,0,0,1,2211,413.306c.034-3.546.691-7.056.937-10.594.167-2.409.625-8.55-1.477-10.358a10.657,10.657,0,0,0-2.918-.669,4.7,4.7,0,0,0-3.517,2.416" transform="translate(-1814.197 -322.751)" fill="#020202"/>
          <path id="Trazado_991630" data-name="Trazado 991630" d="M2246.777,413.444c-1.779,1.388-2.635.926-4.669.45a2.415,2.415,0,0,1-.82-.3c-2.988-2.015-1.024-6.93-1.847-9.977-1.1-4.059-4.55-7.424-7.668-9.8-3.634-2.763-7.72-4.816-11.442-7.448a18.409,18.409,0,0,1-4.845-4.323c-1.09-1.558-1.841-3.356-2.877-4.954-2.723-4.2-7.368-6.965-9.115-11.727-.541-1.475-.626-5.093.977-6a5.237,5.237,0,0,1,2.841-.385c8.152.31,16.229-2.161,24.173-3.678,12.307-2.35,25.267-1.038,31.267,11.437A27.219,27.219,0,0,1,2265,381.883a36.287,36.287,0,0,1-1.072,5.26,42.549,42.549,0,0,1-3.229,8.133c-3.383,6.5-8.224,13.72-13.925,18.168" transform="translate(-1815.418 -291.983)" fill="#212121"/>
          <path id="Trazado_991631" data-name="Trazado 991631" d="M2286.227,536.417a7.71,7.71,0,0,0,.672-.692c.19-.223,2.262-2.178,2.321-1.866a82.251,82.251,0,0,0-2.458-9.049c-3.271-10.453-6.543-20.908-10.091-31.271-.951-2.776-.957-4.022.736-6.352,2.148-2.959,4.02-6.876,3.308-10.728-.649-3.515-3.523-6.445-7.3-5.374a5.868,5.868,0,0,0-3.369,2.309,13.469,13.469,0,0,0-1.939,4,1.2,1.2,0,0,1-.476.762.931.931,0,0,1-.448.082c-1.61-.027-2.44-3.691-3.024-4.982a9.193,9.193,0,0,0-1.525-2.58,9.338,9.338,0,0,0-4.054-2.125q-11.034-3.641-21.849-7.908c-1.172,12.384.9,25.132,3.836,37.145a16.624,16.624,0,0,0,2.1,5.286,7.74,7.74,0,0,0,4.46,3.363,10.474,10.474,0,0,0,3.331.131,39.1,39.1,0,0,0,6.109-.992c1.369,2.972,1.761,6.115,2.368,9.355q.995,5.324,1.991,10.647l1.442,7.712c.405,2.167-.054,5.912,1.845,7.173a11.469,11.469,0,0,0,4.975,1.742,18.959,18.959,0,0,0,7.379-.916,28.73,28.73,0,0,0,7.348-3.186,16.306,16.306,0,0,0,2.305-1.683" transform="translate(-1842.824 -379.573)" fill="#ffc7a1"/>
          <path id="Trazado_991632" data-name="Trazado 991632" d="M2325.595,799.3c-2.3-10.555-4.17-22.088-10.846-30.914-6.121-8.091-15.272-11.74-24.672-14.617-2.826-.865-5.291-.461-8.073-.992a16.378,16.378,0,0,1-7.948-4.614c-.5-.522-4.737-6.645-3.375-7.168a185.786,185.786,0,0,1-31.283,8.961c-.208,2.232-1.287,2.989-2.068,5l-2.951,7.589c-2.892,7.439-10.026,12.184-13.033,19.81-3.316,8.411-3.756,17.712-3.719,26.65.068,16.295.414,32.727.925,49.14h116q-1.117-12-2.768-23.939-2.432-17.591-6.191-34.905" transform="translate(-1827.352 -610.585)" fill="#88a160"/>
          <path id="Trazado_991633" data-name="Trazado 991633" d="M2339.794,552.181a8.059,8.059,0,1,1-8.707-6.831,7.832,7.832,0,0,1,8.707,6.831" transform="translate(-1914.792 -449.345)" fill="#ff976e"/>
          <path id="Trazado_991634" data-name="Trazado 991634" d="M2255.62,586.33a17.07,17.07,0,0,1-.05,2.786,3.581,3.581,0,0,1-.557,2c-.786,1.079-2.244,1.2-3.428,1.54-1.613.458-.252,1.631.538,2.146a12.42,12.42,0,0,0,4.525,1.489Z" transform="translate(-1854.716 -483.144)" fill="#ff976e"/>
          <path id="Trazado_991635" data-name="Trazado 991635" d="M2295.379,636.294a10.641,10.641,0,0,1-5.8,3.628,10.227,10.227,0,0,1-1.44.261l5.349.314c.925-1.09,2.042-2.694,1.888-4.2" transform="translate(-1885.459 -524.315)" fill="#ff976e"/>
          <path id="Trazado_991636" data-name="Trazado 991636" d="M2292.358,639.6a.242.242,0,0,1-.185-.4,7.045,7.045,0,0,0,1.82-3.388,10.942,10.942,0,0,1-5.486,3.205,10.357,10.357,0,0,1-1.474.267.242.242,0,0,1-.049-.482,9.868,9.868,0,0,0,1.406-.255,10.453,10.453,0,0,0,5.669-3.547.242.242,0,0,1,.427.129c.127,1.238-.527,2.713-1.944,4.384a.241.241,0,0,1-.184.086" transform="translate(-1884.326 -523.181)"/>
          <path id="Trazado_991637" data-name="Trazado 991637" d="M2438.674,548.546a4.307,4.307,0,0,1-4.138-3.551,4.828,4.828,0,0,1,1.01-4.024,5.419,5.419,0,0,1,3.758-1.629.242.242,0,1,1,.048.481,4.912,4.912,0,0,0-3.439,1.463,4.4,4.4,0,0,0-.9,3.613,3.818,3.818,0,0,0,3.738,3.162.248.248,0,0,1,.247.237.242.242,0,0,1-.237.247h-.084" transform="translate(-2006.013 -444.424)"/>
          <path id="Trazado_991638" data-name="Trazado 991638" d="M2301.1,564.811a1.57,1.57,0,1,1-1.857-1.6,1.758,1.758,0,0,1,1.857,1.6" transform="translate(-1893.626 -464.073)" fill="#0f0f0f"/>
          <path id="Trazado_991639" data-name="Trazado 991639" d="M2253.491,574.636c.195,1.041-.178,1.984-.832,2.107s-1.343-.622-1.538-1.664.178-1.984.832-2.107,1.343.622,1.537,1.664" transform="translate(-1854.911 -472.126)" fill="#0f0f0f"/>
          <path id="Trazado_991640" data-name="Trazado 991640" d="M2297.583,537.372a.4.4,0,0,1-.225-.069c-1.955-1.322-4.137-1.631-7.075-1a.4.4,0,1,1-.169-.789c3.128-.67,5.573-.314,7.7,1.122a.4.4,0,0,1-.226.737" transform="translate(-1886.82 -441.001)"/>
          <path id="Trazado_991641" data-name="Trazado 991641" d="M2339.939,820.316a.242.242,0,0,1-.03-.482c11.058-1.373,21.56-4.751,30.375-7.874a.242.242,0,0,1,.161.456c-8.839,3.132-19.373,6.519-30.477,7.9l-.03,0" transform="translate(-1927.941 -669.054)"/>
          <path id="Trazado_991642" data-name="Trazado 991642" d="M2296.561,1052.095a.242.242,0,0,1-.016-.483,407.989,407.989,0,0,0,72.067-11.376.242.242,0,1,1,.118.469,408.493,408.493,0,0,1-72.152,11.389h-.017" transform="translate(-1892.197 -857.162)" fill="#e6f3ff"/>
          <path id="Trazado_991643" data-name="Trazado 991643" d="M2572.294,610.115c11.23-6.067,25.506-5.534,37.728-8.326,10.461-2.389,21.039-7,27.234-15.761a10.7,10.7,0,0,1,2.983-3.33c2.953-1.734,4.575,1.588,6.324,3.358a9.391,9.391,0,0,1,2.758,4c.656,2.555-.916,5.131-2.641,7.128-8.437,9.767-21.606,14.023-34.356,16.018-9.024,1.412-18.168,1.909-27.179,3.414a45.131,45.131,0,0,0-11.941,3.272c-4.137,1.934-8.119,4.4-12.562,5.591,2.407-2.512,2.958-6.027,4.647-8.965a17.348,17.348,0,0,1,7-6.4" transform="translate(-2110.003 -479.75)" fill="#ffb948"/>
          <path id="Trazado_991644" data-name="Trazado 991644" d="M2575.05,566.137c10.592-7.121,24.854-7.967,36.75-11.923,10.182-3.387,20.266-9,25.588-18.313a10.7,10.7,0,0,1,2.648-3.6c2.772-2.011,4.707,1.139,6.618,2.733a9.394,9.394,0,0,1,3.131,3.715c.9,2.48-.418,5.2-1.942,7.349-7.456,10.534-20.153,16.04-32.652,19.255-8.846,2.276-17.9,3.652-26.723,6.018a45.126,45.126,0,0,0-11.57,4.408c-3.931,2.324-7.657,5.163-11.964,6.776,2.154-2.733,2.364-6.284,3.762-9.371a17.352,17.352,0,0,1,6.354-7.045" transform="translate(-2113.539 -438.086)" fill="#ff9906"/>
          <path id="Trazado_991645" data-name="Trazado 991645" d="M2338.624,753.267a77.168,77.168,0,0,0,13.689-7.276,3.955,3.955,0,0,1,2.965-.969c2.025.382,4.9,7.133,5.9,8.737a83.55,83.55,0,0,1-44.6,18.058c-5.434.475-4.824-9.377-3.524-13,.377-1.05,2.116-.687,2.912-.728q2.091-.108,4.174-.32a71.622,71.622,0,0,0,7.977-1.268,65.865,65.865,0,0,0,10.51-3.239" transform="translate(-1905.251 -613.859)" fill="#ffb948"/>
          <path id="Trazado_991646" data-name="Trazado 991646" d="M2324.711,762.311a90.768,90.768,0,0,0,15.858-5.952,4.757,4.757,0,0,1,3.373-.684c2.2.571,4.683,7.564,5.614,9.254a99.872,99.872,0,0,1-51.089,13.77c-6.048-.039-4.365-9.79-2.559-13.271.524-1.01,2.406-.484,3.29-.45q2.32.09,4.642.075a87.841,87.841,0,0,0,8.937-.509,79.912,79.912,0,0,0,11.934-2.233" transform="translate(-1890.478 -622.591)" fill="#ff9906"/>
          <path id="Trazado_991647" data-name="Trazado 991647" d="M2343.456,820.115a.4.4,0,0,1-.389-.3,31.073,31.073,0,0,1-.23-14.039.4.4,0,0,1,.792.156,30.266,30.266,0,0,0,.218,13.676.4.4,0,0,1-.39.507" transform="translate(-1929.962 -663.702)" fill="#ffe8b6"/>
          <path id="Trazado_991648" data-name="Trazado 991648" d="M2403.655,817.245a.409.409,0,0,1-.109-.015c-.791-.221-1.092-1.1-1.236-1.529-.137-.4-.277-.807-.417-1.211-1.149-3.31-2.337-6.733-2.048-10.367a.4.4,0,1,1,.8.064c-.276,3.465.884,6.807,2.006,10.038q.212.609.419,1.216c.152.448.354.918.69,1.013a.4.4,0,0,1-.108.792" transform="translate(-1977.466 -662.302)" fill="#ffe8b6"/>
          <path id="Trazado_991649" data-name="Trazado 991649" d="M2465.841,804.189a.4.4,0,0,1-.382-.275,13.625,13.625,0,0,0-.5-1.342c-.081-.177-.169-.349-.262-.532-.06-.117-.12-.235-.178-.353a22.586,22.586,0,0,1-.88-2.168l-1.317-3.6a25.86,25.86,0,0,1-1.3-4.334.4.4,0,0,1,.795-.14,25.212,25.212,0,0,0,1.264,4.2l1.317,3.6a22.126,22.126,0,0,0,.847,2.09c.056.114.114.228.172.341.093.182.189.37.277.563a14.5,14.5,0,0,1,.534,1.42.4.4,0,0,1-.254.511.4.4,0,0,1-.128.021" transform="translate(-2027.906 -651.885)" fill="#ffe8b6"/>
          <path id="Trazado_991650" data-name="Trazado 991650" d="M2534.606,780.025a.4.4,0,0,1-.331-.172,13.727,13.727,0,0,1-1.275-2.479l-1.664-3.864a18.187,18.187,0,0,1-1.669-5.333.4.4,0,1,1,.8-.08,17.591,17.591,0,0,0,1.607,5.095l1.664,3.864a13.128,13.128,0,0,0,1.2,2.336.4.4,0,0,1-.331.634" transform="translate(-2084.478 -632.622)" fill="#ffe8b6"/>
          <path id="Trazado_991651" data-name="Trazado 991651" d="M2677.439,709.362a5.176,5.176,0,0,0-.894-1.511c-.164-.218-.334-.443-.495-.685a14.039,14.039,0,0,1-1.339-2.63,36.575,36.575,0,0,1-1.524-5.452l-.037-.163.787-.177.037.163a36,36,0,0,0,1.487,5.332,13.272,13.272,0,0,0,1.261,2.48c.147.222.309.437.466.645a5.9,5.9,0,0,1,1.018,1.748Z" transform="translate(-2202.71 -575.774)" fill="#ffe8b6"/>
          <path id="Trazado_991652" data-name="Trazado 991652" d="M2759.509,688.895a5.376,5.376,0,0,1-1.087-1.9,60.655,60.655,0,0,1-2.735-8.938l.787-.176a59.755,59.755,0,0,0,2.7,8.818,4.653,4.653,0,0,0,.908,1.626Z" transform="translate(-2270.722 -558.584)" fill="#ffe8b6"/>
          <path id="Trazado_991653" data-name="Trazado 991653" d="M2840.531,667.811a62.24,62.24,0,0,1-4.19-8.929l-.022-.06a5.084,5.084,0,0,0-.824-1.611l.606-.532a5.759,5.759,0,0,1,.974,1.86l.023.06a61.274,61.274,0,0,0,4.135,8.813Z" transform="translate(-2336.485 -541.111)" fill="#ffe8b6"/>
          <path id="Trazado_991654" data-name="Trazado 991654" d="M2933.483,618.872a39.127,39.127,0,0,1-6.026-8.419c-.06-.126-.119-.253-.178-.381a6.027,6.027,0,0,0-1.355-2.119l.527-.611a6.713,6.713,0,0,1,1.56,2.39c.058.125.116.25.175.374a38.5,38.5,0,0,0,5.909,8.24Z" transform="translate(-2411 -500.459)" fill="#ffe8b6"/>
          <path id="Trazado_991655" data-name="Trazado 991655" d="M2991.039,553.337c-4.275-2.448-6.981-6.56-9.6-10.536l-.524-.8.673-.445q.263.4.526.8c2.565,3.9,5.217,7.928,9.325,10.28Z" transform="translate(-2456.314 -446.253)" fill="#ffe8b6"/>
          <path id="Trazado_991656" data-name="Trazado 991656" d="M2232.226,545.747a.4.4,0,0,1-.295-.679,21.309,21.309,0,0,1,1.971-1.854,8.518,8.518,0,0,1,.738-.558,5.5,5.5,0,0,1,1.9-.786.4.4,0,0,1,.162.79,4.683,4.683,0,0,0-1.617.669,7.867,7.867,0,0,0-.668.506,20.562,20.562,0,0,0-1.9,1.783.4.4,0,0,1-.294.128" transform="translate(-1839.051 -446.503)"/>
          <path id="Trazado_991657" data-name="Trazado 991657" d="M1867.811,1208.242a8.744,8.744,0,0,0-1.885-3.688c-2.345-2.7-6.076-4.012-9.345-5.1a118.724,118.724,0,0,0-11.818-2.759q-7.375-1.645-14.718-3.438c-.479-.117-.958-.234-1.424-.395a19.822,19.822,0,0,1-2.135-.948,44.7,44.7,0,0,0-6.373-2.516c-.888-.27-1.386.027-1.684.974a1.877,1.877,0,0,0,.783,2.017,33.743,33.743,0,0,0,2.916,2.393c.6.437,2.534,1.272,2.594,2.022.013.165-1.195.145-1.3.119-4.588-1.13-8.97-3.068-13.607-3.97a6.07,6.07,0,0,0-3.083-.011,6.758,6.758,0,0,0-2.058,1.317c1.8,1.035,3.717,1.954,5.472,3.021a48.927,48.927,0,0,0,5.914,3.163c-1.919-.832-3.9-1.5-5.874-2.183a32.3,32.3,0,0,0-4.436-1.6,4.43,4.43,0,0,0-2.177.121c-.238.075-1.768.664-1.417.958a47.092,47.092,0,0,0,6.068,4.68c2.352,1.374,4.749,2.674,7.122,4.011l-8.608-2.786a10.484,10.484,0,0,0-3.73-.722,3.578,3.578,0,0,0-3.122,1.873l14.983,8.51a5.165,5.165,0,0,0-2.1-.4l-4.068-.2a5.051,5.051,0,0,0-1.172.035,4.185,4.185,0,0,0-2.339,1.651c.043-.054,10.031,3.532,11.162,3.748q10.773,2.057,21.614,3.719c6.434.986,13,1.867,19.417.785,3.641-.615,5.518-2.437,7.791-5.205a11.622,11.622,0,0,0,2.879-7.115,8.627,8.627,0,0,0-.239-2.076" transform="translate(-1483.131 -979.997)" fill="#ffc7a1"/>
          <path id="Trazado_991658" data-name="Trazado 991658" d="M2120.954,904l1.522-2.5c4.926-8.094,10.005-16.693,10.168-26.166.21-12.21-9.024-22.781-20.642-25.7-14.207-3.572-21.776,5.385-26.807,17.259l-22.7,53.572a2.2,2.2,0,0,1-3.014,1.6l-57.236-9.207a5.89,5.89,0,0,0-3.84.248c-1.363.772-1.866,2.452-2.25,3.969l-5.754,22.713a4.312,4.312,0,0,0-.076,2.779c.512,1.156,1.885,1.61,3.107,1.939q40.491,10.886,81.425,20.026c2.233.5,4.6.988,6.769.258,2.8-.941,4.549-3.642,6.083-6.162L2120.954,904" transform="translate(-1639.885 -699.451)" fill="#88a160"/>
          <path id="Trazado_991659" data-name="Trazado 991659" d="M2039.738,1247.941a.254.254,0,0,1-.074-.012.243.243,0,0,1-.157-.3c2.311-7.215,4.065-14.723,5.761-21.985.792-3.388,1.61-6.892,2.475-10.32a.242.242,0,1,1,.469.118c-.863,3.424-1.681,6.926-2.472,10.312-1.7,7.271-3.455,14.789-5.772,22.022a.242.242,0,0,1-.23.168" transform="translate(-1680.571 -1001.289)" fill="#e6f3ff"/>
          <path id="Trazado_991660" data-name="Trazado 991660" d="M2255.517,595.4a.26.26,0,0,1-.046,0,12.734,12.734,0,0,1-4.613-1.524c-.455-.3-1.5-1.067-1.392-1.8.055-.362.365-.626.921-.784.24-.068.5-.129.741-.187a4.122,4.122,0,0,0,2.557-1.263,3.285,3.285,0,0,0,.511-1.863c.009-.256.027-.522.044-.78a10.2,10.2,0,0,0,.007-1.966.242.242,0,1,1,.479-.064,10.485,10.485,0,0,1,0,2.062c-.017.266-.034.517-.043.766a3.854,3.854,0,0,1-.6,2.13,4.539,4.539,0,0,1-2.836,1.449c-.252.06-.49.116-.721.182-.2.057-.543.184-.574.391-.045.3.439.838,1.178,1.32a12.177,12.177,0,0,0,4.439,1.454.242.242,0,0,1-.045.48" transform="translate(-1853.583 -482.011)"/>
          <path id="Trazado_991661" data-name="Trazado 991661" d="M2078.041,964.217a20.242,20.242,0,0,1-4.369-.634c-27.16-6.065-54.558-12.8-81.435-20.029-1.288-.346-2.709-.821-3.265-2.074a4.483,4.483,0,0,1,.062-2.937l5.754-22.713c.416-1.643.942-3.314,2.365-4.121a6.042,6.042,0,0,1,4-.277l57.236,9.207a1.973,1.973,0,0,0,2.752-1.453l22.7-53.572c2.892-6.824,6.176-11.574,10.039-14.52,4.756-3.627,10.333-4.568,17.051-2.879a28.409,28.409,0,0,1,14.884,9.449,25.384,25.384,0,0,1,5.941,16.493c-.168,9.8-5.733,18.942-10.2,26.288l-34.767,57.125c-1.684,2.767-3.427,5.328-6.213,6.265a7.894,7.894,0,0,1-2.53.382m-78.84-52.5a3.6,3.6,0,0,0-1.808.411c-1.258.713-1.744,2.277-2.135,3.818l-5.754,22.713a4.112,4.112,0,0,0-.089,2.622c.469,1.058,1.768,1.485,2.948,1.8,26.87,7.224,54.261,13.961,81.415,20.024,1.989.444,4.465,1,6.639.265,2.631-.885,4.317-3.371,5.953-6.058l34.768-57.125c4.44-7.3,9.967-16.376,10.133-26.044a24.9,24.9,0,0,0-5.831-16.177,27.924,27.924,0,0,0-14.628-9.287c-6.565-1.652-12.008-.737-16.639,2.795-3.8,2.894-7.029,7.58-9.887,14.324l-22.7,53.572a3.177,3.177,0,0,1-1.093,1.552,3.094,3.094,0,0,1-2.183.19l-57.236-9.207a12.072,12.072,0,0,0-1.874-.191m120.621-8.9h0Z" transform="translate(-1638.752 -698.272)" fill="#e6f3ff"/>
          <path id="Trazado_991662" data-name="Trazado 991662" d="M2655.329,1740.915H2687.8a1.141,1.141,0,0,0,1.141-1.141v-.488a1.141,1.141,0,0,0-1.141-1.141h-32.473a1.142,1.142,0,0,0-1.142,1.141v.488a1.141,1.141,0,0,0,1.142,1.141" transform="translate(-2187.086 -1432.254)" fill="#ff9906"/>
          <path id="Trazado_991663" data-name="Trazado 991663" d="M2666.412,1760.375a3.148,3.148,0,1,0,3.148-3.148,3.148,3.148,0,0,0-3.148,3.148" transform="translate(-2197.158 -1447.978)" fill="#ff9906"/>
          <path id="Trazado_991664" data-name="Trazado 991664" d="M2805.247,1760.375a3.148,3.148,0,1,0,3.148-3.148,3.148,3.148,0,0,0-3.148,3.148" transform="translate(-2311.56 -1447.978)" fill="#ff9906"/>
          <path id="Trazado_991665" data-name="Trazado 991665" d="M2656.93,1556.867a1.528,1.528,0,0,0-.6-.8c-.04-.027-.082-.052-.124-.076a1.5,1.5,0,0,0-.565-.175c-.051-.005-.1-.008-.154-.008h-68.405a2.376,2.376,0,0,0-2.177,3.326l2.367,5.424q2.135,4.891,4.269,9.781l1.342,3.075,3.587,8.219a2.377,2.377,0,0,0,2.178,1.426h32.385a2.377,2.377,0,0,0,2.177-1.426l11.54-26.441h8.982v4.871a1.516,1.516,0,0,0,1.511,1.511h.245a1.516,1.516,0,0,0,1.511-1.511v-6.744a1.512,1.512,0,0,0-.068-.448m-60.564,18.014h-1.7l-1.153-2.354-1.082-2.209v-.475h3.937Zm0-7.419h-3.937v-4.5h3.937Zm0-6.88h-3.937v-1.394h3.937Zm6.018,19.5h-3.636v-2.822h3.636Zm0-5.2h-3.636v-5.037h3.636Zm0-7.419h-3.636v-4.5h3.636Zm0-6.88h-3.636v-1.394h3.636Zm6.186,19.5h-3.805v-2.822h3.805Zm0-5.2h-3.805v-5.037h3.805Zm0-7.419h-3.805v-4.5h3.805Zm0-6.88h-3.805v-1.394h3.805Zm5.988,19.5h-3.607v-2.822h3.607Zm0-5.2h-3.607v-5.037h3.607Zm0-7.419h-3.607v-4.5h3.607Zm0-6.88h-3.607v-1.394h3.607Zm6.086,19.5h-3.7v-2.822h3.7Zm0-5.2h-3.7v-5.037h3.7Zm0-7.419h-3.7v-4.5h3.7Zm0-6.88h-3.7v-1.394h3.7Zm6.02,19.5h-3.639v-2.822h3.639Zm0-5.2h-3.639v-5.037h3.639Zm0-7.419h-3.639v-4.5h3.639Zm0-6.88h-3.639v-1.394h3.639Zm6.019,19-.246.5h-3.392v-2.822h3.638Zm0-4.7h-3.638v-5.037h3.638Zm0-7.419h-3.638v-4.5h3.638Zm0-6.88h-3.638v-1.394h3.638Zm4.438,9.939-2.057,4.2v-4.876h2.389Zm1.648-3.365-.15.306h-3.555v-4.5h3.7Zm0-6.574h-3.7v-1.394h3.7Z" transform="translate(-2129.83 -1282.003)" fill="#ff9906"/>
          <path id="Trazado_991666" data-name="Trazado 991666" d="M2159.009,1576.96h-65.067a2.836,2.836,0,0,1-2.837-2.837v-8.763a2.836,2.836,0,0,1,2.837-2.837h65.067a2.836,2.836,0,0,1,2.836,2.837v8.763a2.836,2.836,0,0,1-2.836,2.837" transform="translate(-1723.099 -1287.54)" fill="#a5d9f9"/>
          <path id="Trazado_991667" data-name="Trazado 991667" d="M1810.43,57.268h-70.842c-1.755,0-4.932-.7-6.421.349-1.758,1.235-2.912,5.362-2.87,7.456a21.965,21.965,0,0,1,.119,2.959c0,.035-4.9-2.863-5.325-3.222a20.158,20.158,0,0,1-3.174-3.371c-.881-1.181-1.5-2.819-2.645-3.736-1.555-1.243-5.541-.435-7.538-.435h-24.076a2.853,2.853,0,0,1-2.757-2.94V19.347a2.853,2.853,0,0,1,2.757-2.94H1810.43a2.853,2.853,0,0,1,2.757,2.94v34.98a2.853,2.853,0,0,1-2.757,2.94" transform="translate(-1388.381 -13.52)" fill="#a5d9f9"/>
          <path id="Trazado_991668" data-name="Trazado 991668" d="M1918.447,106.315a4.982,4.982,0,1,0,4.982-4.982,4.982,4.982,0,0,0-4.982,4.982" transform="translate(-1580.826 -83.5)" fill="#e6f3ff"/>
          <path id="Trazado_991669" data-name="Trazado 991669" d="M2020.358,106.315a4.982,4.982,0,1,0,4.982-4.982,4.982,4.982,0,0,0-4.982,4.982" transform="translate(-1664.802 -83.5)" fill="#e6f3ff"/>
          <path id="Trazado_991670" data-name="Trazado 991670" d="M2116.607,106.315a4.982,4.982,0,1,0,4.982-4.982,4.982,4.982,0,0,0-4.982,4.982" transform="translate(-1744.112 -83.5)" fill="#e6f3ff"/>
          <rect id="Rectángulo_455354" data-name="Rectángulo 455354" width="75.071" height="0.968" transform="translate(367.285 301.929)" fill="#0c3359"/>
          <rect id="Rectángulo_455355" data-name="Rectángulo 455355" width="75.071" height="0.968" transform="translate(367.285 313.479)" fill="#0c3359"/>
          <path id="Trazado_991671" data-name="Trazado 991671" d="M770.595,2179.466H218.288a.4.4,0,0,1,0-.807H770.595a.4.4,0,0,1,0,.807" transform="translate(-179.54 -1795.244)" fill="#1e5098"/>
          <path id="Trazado_991672" data-name="Trazado 991672" d="M1464.889,1482.712q.021-6.169.021-12.338a18.086,18.086,0,0,0-.81-6.6,9.235,9.235,0,0,0-8.194-5.75q-.4-.009-.8.021a9.267,9.267,0,0,0-7.645,5.349,16.589,16.589,0,0,0-1.048,6.443c-.076,4.3.129,8.595.159,12.891.016,2.219-.014,4.437-.156,6.653-.427,6.7-2.089,14.479-10.154,15.225a51.093,51.093,0,0,1-5.912.163V1442.7a13.282,13.282,0,0,0-26.564,0v31.949a51.053,51.053,0,0,1-5.92-.288c-8.047-.916-9.545-8.725-9.83-15.436-.094-2.219-.077-4.437-.015-6.655.121-4.3.417-8.589.432-12.885a16.576,16.576,0,0,0-.912-6.463,9.265,9.265,0,0,0-7.53-5.508q-.4-.038-.8-.038a9.235,9.235,0,0,0-8.314,5.576,18.091,18.091,0,0,0-.95,6.587q-.12,6.168-.24,12.336c-.225,12.62-3.54,29.636,9.022,37.723,3.846,2.476,8.1,3.094,12.569,3.161,4.162.062,8.327.06,12.492.039v67.4h26.564v-37.276c4.031.1,8.063.19,12.093.215,4.475.028,8.736-.5,12.633-2.895,12.73-7.82,9.775-24.9,9.817-37.525" transform="translate(-1128.189 -1176.176)" fill="#52aa77"/>
          <path id="Trazado_991673" data-name="Trazado 991673" d="M1224.391,2019.187a24.4,24.4,0,0,1-3.078-1.145c-5.341-2.414-13.691-9-11.786-15.819.88-3.149,4.077-4.572,7.068-5.082,9.75-1.661,18.723,3.7,25.037,10.743,1.7,1.9,3.289,4.624,2.846,7.283-.685,4.114-5.525,4.688-8.9,5.009a29.506,29.506,0,0,1-11.183-.99" transform="translate(-996.438 -1645.421)" fill="#176b41"/>
          <path id="Trazado_991674" data-name="Trazado 991674" d="M1473.323,1991.745a24.32,24.32,0,0,0,2.712-1.851c4.6-3.627,11.127-12.027,7.641-18.186-1.611-2.846-5.056-3.459-8.082-3.235-9.864.73-17.285,8.09-21.723,16.443-1.2,2.253-2.082,5.278-1.013,7.753,1.654,3.829,6.49,3.224,9.847,2.724a29.509,29.509,0,0,0,10.618-3.647" transform="translate(-1196.779 -1622.012)" fill="#176b41"/>
          <path id="Trazado_991675" data-name="Trazado 991675" d="M1346.321,1836.106a31.056,31.056,0,0,1-.874-3.578c-1.164-6.425-.651-17.886,6.13-19.465,3.133-.73,6.208,1.67,8.4,4.329,7.157,8.669,8.029,20.12,5.932,29.825-.565,2.619-1.884,5.537-4.352,6.446-3.817,1.406-7.162-3.023-9.431-6.156a39.359,39.359,0,0,1-5.808-11.4" transform="translate(-1108.264 -1493.879)" fill="#176b41"/>
          <path id="Trazado_991676" data-name="Trazado 991676" d="M1431.793,2069.232a.242.242,0,0,1-.242-.242v-24.041a.242.242,0,1,1,.484,0v24.041a.242.242,0,0,1-.242.242" transform="translate(-1179.617 -1684.865)" fill="#176b41"/>
          <path id="Trazado_991677" data-name="Trazado 991677" d="M1412.5,2106.75a2.026,2.026,0,0,1-1.171-.555l-2.491-1.916a2.1,2.1,0,0,1-.768-.879.242.242,0,1,1,.454-.168,1.67,1.67,0,0,0,.61.663l2.491,1.916c.822.632.928.566,1.75.05.094-.059.195-.123.306-.19.912-.558,1.857-1.087,2.808-1.573a.242.242,0,1,1,.22.431c-.94.48-1.874,1-2.775,1.554-.109.066-.208.129-.3.187a2.267,2.267,0,0,1-1.132.48" transform="translate(-1160.259 -1732.961)" fill="#176b41"/>
          <rect id="Rectángulo_455356" data-name="Rectángulo 455356" width="211.732" height="192.649" transform="translate(23.222 44.739)" fill="#a5d9f9"/>
          <path id="Trazado_991678" data-name="Trazado 991678" d="M414.5,68.162a8.213,8.213,0,0,0-2.3-4.743c-2.048-1.945-5.216-2.369-8-1.791a27.506,27.506,0,0,0-7.767,3.413,24.886,24.886,0,0,1-7.816,3.282c-4.867.845-10.62-.309-15.5-.823a17.773,17.773,0,0,0-9.247,1.122,3.162,3.162,0,0,0-1.342.98,3.5,3.5,0,0,0-.467,1.552Q361.334,76.56,360.937,82c-.087,1.191-.124,2.386-.136,3.581a31.31,31.31,0,0,0,0,5.832,78.684,78.684,0,0,0,1.463,14.536,21.779,21.779,0,0,0,1.953,5.1c.553,1.135,1.132,2.45,1.8,3.738,1.648,3.161,3.857,6.169,7.622,6,2.238-.1,5.825-.194,7.108-2.385,1.312-2.239.541-6.793.631-9.315.089-2.483-.082-9.23,2.1-10.779a3.371,3.371,0,0,1,.965-.447c1.031-.315,3.328.471,4.438.593,1.483.163,2.969.292,4.459.371a67.95,67.95,0,0,0,8.742-.192c5.046-.379,9.855-.413,14.68-2.418a19.208,19.208,0,0,0,11.466-14.531c.474-3.124.035-6.578-2.1-8.934a8.009,8.009,0,0,0-8.157-2.166,13.139,13.139,0,0,1-3.328,1.01,15.744,15.744,0,0,0-.152-3.429" transform="translate(-297.177 -50.585)" fill="#212121"/>
          <path id="Trazado_991679" data-name="Trazado 991679" d="M418.548,137.947c-1.7.913-3.261,1.921-4.332,2.465l-15.842,8.043a11.115,11.115,0,0,1-6.891,1.61l-12.869-.206a40.385,40.385,0,0,0-10.251.71c-2.8.684-7.233,2.429-7.958,5.525-.7,3.01.916,8.336,1.522,11.356a21.777,21.777,0,0,0,1.953,5.1c.553,1.135,1.132,2.45,1.8,3.739,1.648,3.161,3.857,6.169,7.622,6,2.238-.1,5.825-.194,7.108-2.385,1.312-2.239.541-6.793.631-9.315.089-2.483-.082-9.23,2.1-10.779a3.376,3.376,0,0,1,.965-.447c1.031-.315,3.328.471,4.438.593,1.483.163,2.969.292,4.459.371a67.947,67.947,0,0,0,8.742-.192c5.046-.379,9.855-.413,14.68-2.418a19.321,19.321,0,0,0,9.54-8.76c1.511-2.856,3.963-9.732.7-12.205-2.071-1.569-5.3-.317-8.126,1.2" transform="translate(-296.835 -112.086)" fill="#020202"/>
          <path id="Trazado_991680" data-name="Trazado 991680" d="M420.34,252.305c-.018,6.529.411,13.034.139,19.558-.089,2.136-.329,4.474-1.874,5.981-1.342,1.309-3.354,1.665-5.241,1.791a32.44,32.44,0,0,1-4.893-.044c-1.182-.1-3.309-.926-3.868.6a3.5,3.5,0,0,0-.1,1.5c.74,9.017,3.154,17.846,3.79,26.871a4.262,4.262,0,0,1-.228,2.14,4.4,4.4,0,0,1-1.178,1.351,21.6,21.6,0,0,1-6.794,4.422c-3.1,1.082-6.511.842-9.763.345a27.534,27.534,0,0,1-8.319-2.383,13.212,13.212,0,0,1-5.26-4.58,4.774,4.774,0,0,1-.8-3.393c.084-1.513.217-3.022.349-4.532q1.046-11.971,2.092-23.942c.331-3.79.609-7.589.986-11.375q.03-.3.06-.595c.25-2.436.286-3.785-1.58-5.659-.922-.926-1.978-1.719-2.874-2.67-2.737-2.907-4.838-9.227-1.2-12.292a7.534,7.534,0,0,1,9.035-.194c2.337,1.567,2.681,3.765,3.681,6.169a1.051,1.051,0,0,0,1.587.528c.526-.354.683-1.342.827-1.9.435-1.692.534-3.442.817-5.159.6-3.617,1.049-8.49,3.148-11.609a3.735,3.735,0,0,1,.965-1.026c1.328-.905,3.125-.436,4.683-.016a45.758,45.758,0,0,0,15.407,1.434,10.563,10.563,0,0,1,3.88.124c3.079.933,2.34,4.212,2.372,6.663q.035,2.664.071,5.328c.029,2.192.083,4.386.077,6.579" transform="translate(-306.408 -190.904)" fill="#ffc7a1"/>
          <path id="Trazado_991681" data-name="Trazado 991681" d="M474.452,512.865c0,1.751.584,3.179-.859,4.459a6.274,6.274,0,0,1-4.644,1.464,5.336,5.336,0,0,1-2.639-.926,5.193,5.193,0,0,1-1.827-2.664,7.28,7.28,0,0,1-.268-1.147,18.435,18.435,0,0,1,.08-4.434,86.652,86.652,0,0,0,.377-10.652c-.14-4.493-.819-9.23-3.663-12.751-1.318-1.632-3.176-3.252-2.966-5.326a14.056,14.056,0,0,1,3.965.474l6.006,1.307,3.825.833,1.913.416c.8.175,1.471.235,1.872,1.038.263.525-.056.814-.145,1.295a6.531,6.531,0,0,0,.114,1.869q.3,2.427.659,4.845c.35,2.33.748,4.652,1.145,6.975l.35,2.047a.748.748,0,0,0,.087.279,1.081,1.081,0,0,0,.281.247c.708.542.347,1.289.469,2,.085.5.166.993.248,1.49a7.524,7.524,0,0,0-.955.357c-.29.088-.591.138-.877.235a5.462,5.462,0,0,0-1.6,1,2.031,2.031,0,0,0-.392.374,4.683,4.683,0,0,0-.547,1.881,27.333,27.333,0,0,0-.01,3.016" transform="translate(-377.42 -396.243)" fill="#ff976e"/>
          <path id="Trazado_991682" data-name="Trazado 991682" d="M394.287,333.107a.242.242,0,0,1-.151-.431,4.9,4.9,0,0,0,2.039-2.6c.387-1.633-.714-4.028-2.4-5.231a2.948,2.948,0,0,0-3.382-.262.242.242,0,1,1-.26-.408,3.351,3.351,0,0,1,3.922.276c1.866,1.328,3.03,3.9,2.595,5.737a5.286,5.286,0,0,1-2.209,2.869.241.241,0,0,1-.15.053" transform="translate(-321.379 -266.702)"/>
          <path id="Trazado_991683" data-name="Trazado 991683" d="M462.953,333.237a7.743,7.743,0,1,0,7.407-7.841,7.664,7.664,0,0,0-7.407,7.841" transform="translate(-381.474 -268.126)" fill="#ff976e"/>
          <path id="Trazado_991684" data-name="Trazado 991684" d="M580.368,415.486h-.016c-2.887-.184-6.589-1.264-8.321-3.742a.242.242,0,1,1,.4-.277c1.634,2.337,5.18,3.359,7.955,3.536a.242.242,0,0,1-.015.483" transform="translate(-471.326 -338.969)"/>
          <path id="Trazado_991685" data-name="Trazado 991685" d="M633.995,374.512c-.669-.034-1.34.041-2.009.022a2.349,2.349,0,0,1-2.051-.805l-.676,5.877a10.4,10.4,0,0,0,2.751-1.395,8.828,8.828,0,0,0,2.185-1.863c.4-.515.941-1.779-.2-1.836" transform="translate(-518.518 -307.958)" fill="#ff976e"/>
          <path id="Trazado_991686" data-name="Trazado 991686" d="M623.5,351.7a.242.242,0,0,1-.09-.467,16.028,16.028,0,0,0,4.124-2.427c.483-.392,1.123-1,1.094-1.694a.481.481,0,0,0-.2-.417.784.784,0,0,0-.3-.035h-.212a10.136,10.136,0,0,1-2.07-.131c-3.383-.685-3.476-4.8-3.521-6.78a.242.242,0,1,1,.484-.011c.067,2.965.493,5.782,3.133,6.317a9.75,9.75,0,0,0,1.971.121h.213a1.165,1.165,0,0,1,.5.079.92.92,0,0,1,.486.837,2.788,2.788,0,0,1-1.272,2.089,16.515,16.515,0,0,1-4.248,2.5.24.24,0,0,1-.09.017" transform="translate(-512.8 -279.755)"/>
          <path id="Trazado_991687" data-name="Trazado 991687" d="M593.876,334.484a1.381,1.381,0,1,0,1.417-1.609,1.529,1.529,0,0,0-1.417,1.609" transform="translate(-489.36 -274.293)" fill="#0f0f0f"/>
          <path id="Trazado_991688" data-name="Trazado 991688" d="M641.415,336.267c-.037.918.409,1.68,1,1.7s1.093-.7,1.129-1.621-.409-1.68-1-1.7-1.093.7-1.129,1.62" transform="translate(-528.533 -275.753)" fill="#0f0f0f"/>
          <path id="Trazado_991689" data-name="Trazado 991689" d="M577.7,311a.644.644,0,0,1-.22-.039,7.428,7.428,0,0,0-6.088-.027.645.645,0,0,1-.555-1.165,8.723,8.723,0,0,1,7.083-.021A.645.645,0,0,1,577.7,311" transform="translate(-470.07 -254.632)"/>
          <path id="Trazado_991690" data-name="Trazado 991690" d="M635.321,312.187a.645.645,0,0,1-.333-1.2,3.924,3.924,0,0,1,1.79-.407c.108-.007.213-.013.313-.022a1.609,1.609,0,0,1,.689.059c.039.014.079.03.118.047a.645.645,0,0,1,.29,1.239.953.953,0,0,1-.79-.049l-.045-.019c-.019,0-.112.006-.152.009-.109.009-.225.017-.343.024a3.009,3.009,0,0,0-1.2.224.643.643,0,0,1-.332.093" transform="translate(-522.98 -255.895)"/>
          <path id="Trazado_991691" data-name="Trazado 991691" d="M557.3,748.112c-10.681-18.007-19.547-37.747-32.543-54.244-7.829-9.938-29.087-9-39.538-3.9-8.646,4.219-13.047,14.515-12.762,24.131s4.433,18.679,9.1,27.093a204.362,204.362,0,0,0,38.9,49.928c4.157,3.9,8.589,7.688,13.884,9.791,6.22,2.47,13.112,2.417,19.8,2.328l47.584-.629a236.143,236.143,0,0,1-42.826-51.827q-.809-1.326-1.6-2.666" transform="translate(-389.304 -565.455)" fill="#88a160"/>
          <path id="Trazado_991692" data-name="Trazado 991692" d="M193.222,699.734q.446-8.442.778-16.89.039-1,.077-2,.731-19.407.858-38.83c0-.055,0-.11,0-.165q.11-17.143-.25-34.284c-.165-7.868,1.94-17.727-7.217-21.209-8.612-3.275-27.354-5.374-27.049-17.638a3.73,3.73,0,0,0-.128-1.477,3.2,3.2,0,0,0-2.056-1.527c-7.118-2.6-14.845-2.979-22.43-3.333a39.537,39.537,0,0,0-8.825.248,1.294,1.294,0,0,0-1.415,1.437q-.062,1.5-.123,2.992a8.782,8.782,0,0,1-.154,2.671c-.457,1.094-2.379,1.7-3.451,1.892-3.956.718-7.917,1.511-11.891,2.208q-12.789,2.242-25.574,4.51a15.657,15.657,0,0,0-4.646,1.326c-8.323,4.4-8.452,22.689-8.417,30.417.049,10.483,1.747,20.852,2.853,31.258q.132,1.246.253,2.493c1.82,19.025,4.441,37.916,6.043,56.928H193.193c0-.344.011-.685.029-1.021" transform="translate(-58.757 -463.302)" fill="#88a160"/>
          <path id="Trazado_991693" data-name="Trazado 991693" d="M901.956,782.614h0a9.125,9.125,0,0,1-11.152-6.679l-10.5-40.852a9.456,9.456,0,0,1,6.484-11.489h0a9.125,9.125,0,0,1,11.152,6.679l10.5,40.852a9.456,9.456,0,0,1-6.484,11.489" transform="translate(-725.134 -595.994)" fill="#0c3359"/>
          <path id="Trazado_991694" data-name="Trazado 991694" d="M574.771,628.091h0a9.126,9.126,0,0,1-11.152-6.679l-4.125-16.053a9.456,9.456,0,0,1,6.484-11.489h0a9.125,9.125,0,0,1,11.152,6.679l4.125,16.053a9.456,9.456,0,0,1-6.484,11.489" transform="translate(-460.781 -489.1)" fill="#1e5098"/>
          <path id="Trazado_991695" data-name="Trazado 991695" d="M619.457,559.045l8.418,32.76a3.911,3.911,0,0,0,4.793,2.871l7.262-1.98a4.052,4.052,0,0,0,2.787-4.938L634.3,555a3.911,3.911,0,0,0-4.794-2.871l-7.262,1.98a4.052,4.052,0,0,0-2.787,4.938" transform="translate(-510.332 -454.848)" fill="#0c3359"/>
          <path id="Trazado_991696" data-name="Trazado 991696" d="M656.958,447.685l-10.266-39.95c-.3-1.166.543-2.524,2.146-3.46l49.054-28.643c2.905-1.7,6.765-1.231,7.308.882L722.8,445c.543,2.113-2.588,4.485-5.928,4.491l-56.386.11c-1.842,0-3.227-.747-3.526-1.913" transform="translate(-532.834 -308.676)" fill="#1e5098"/>
          <path id="Trazado_991697" data-name="Trazado 991697" d="M958.2,415.77l-17.652-68.7c-1.01-3.93,3.349-8.559,9.687-10.287l21.324,82.986c-6.338,1.728-12.349-.073-13.359-4" transform="translate(-774.907 -277.517)" fill="#0c3359"/>
          <path id="Trazado_991698" data-name="Trazado 991698" d="M1000.911,317.846l21.75,84.641a2.914,2.914,0,0,1-2,3.541,2.813,2.813,0,0,1-3.437-2.059l-21.75-84.641a2.914,2.914,0,0,1,2-3.541,2.813,2.813,0,0,1,3.437,2.059" transform="translate(-820.207 -260.134)" fill="#1e5098"/>
          <path id="Trazado_991699" data-name="Trazado 991699" d="M781.471,845.413c-2.955,4.012-4.721,8.471-8.288,12.206a110.528,110.528,0,0,1-11.755,10c-6.818,5.378-12.441,11.825-19.041,17.348-4.758,3.982-12.08,1.19-15.306-3.542-2.559-3.754-2.925-8.53-1.921-12.874s3.26-8.345,5.665-12.186c5.741-9.166,12.124-17.093,16.771-26.85a30.264,30.264,0,0,1,2.38-4.121c.493-.717.687-1.1,1.71-.916a3.032,3.032,0,0,1,2,1.292c.711,1.123.425,2.525.118,3.786q-.653,2.678-1.3,5.357c-.274,1.122-1.777,4.174.652,3.5,5.4-1.5,9.919-5,11.853-9.935a9.949,9.949,0,0,1,1.092-2.365,3.259,3.259,0,0,1,3.649-1.029c.874.2.989.462,1.145,1.286a10.784,10.784,0,0,1-.477,5.072,27.221,27.221,0,0,1-5.671,9.738c.994.47,3.667-4.126,4.148-4.916a33.468,33.468,0,0,0,2.342-4.606c.59-1.425.939-2.812,2.792-3.2.75-.158,1.984-.378,2.56.259a1.662,1.662,0,0,1,.182,1.395,20.138,20.138,0,0,1-.361,2.081,23.171,23.171,0,0,1-2.848,6.924c-1.287,2.106-3.056,3.892-4.45,5.937a14.144,14.144,0,0,0,2.829-2.9,16.084,16.084,0,0,0,2.485-3.628c.885-1.871,1.928-5.29,5.012-4.159,1.421.521,1.122,2.1.826,3.191a18.344,18.344,0,0,1-3.6,6.87,24.237,24.237,0,0,1-1.874,1.908c-.321.309-.639.621-.94.948-.149.161-.294.326-.432.5a1.191,1.191,0,0,0-.194.54.059.059,0,0,0,.006.056.073.073,0,0,0,.039.016.444.444,0,0,0,.381-.11,8.193,8.193,0,0,0,1.8-1.613c.57-.689,1.1-1.418,1.651-2.122.743-.947,1.937-2.012,3.339-1.753,1.673.31,1.887,1.456,1.028,2.622" transform="translate(-597.115 -679.339)" fill="#ffc7a1"/>
          <path id="Trazado_991700" data-name="Trazado 991700" d="M83.163,712.967A209.362,209.362,0,0,1,53.84,665.882c-3.862-8.585-8.295-14.848-18.442-17.24-9.648-2.275-21.137.533-28.007,7.308-7.881,7.772-6.513,16.775-4.329,26.2a50.939,50.939,0,0,0,2.766,9.233C19.441,722.123,40.753,758,72.109,775.851c24.355,13.865,43.716,2.982,61.247-14.252,7.712-7.581,15.453-15.2,21.914-23.726,3.209-4.238,9.478-11.983,5.8-17.073-3.826-5.3-11.308-10.2-16.73-14.025a11.331,11.331,0,0,0-4.974-2.344c-2.871-.356-5.534,1.3-7.91,2.84-10.806,7.017-30.339,26.02-42.469,12.479q-2.988-3.335-5.826-6.783" transform="translate(-1.127 -533.85)" fill="#88a160"/>
          <path id="Trazado_991701" data-name="Trazado 991701" d="M795.593,906.4H699.82a5.824,5.824,0,0,0-5.263,3.283l-24.2,50.595-10.071,21.055H608.147c-2.234,0-4.465.03-6.7-.009-1.493-.026-2.989-.051-4.481.031-1.36.075-2.865.122-3.956,1.033a2.621,2.621,0,0,0-.9,2.582c.092.2.232.2.388.313a1.108,1.108,0,0,1,.311.334,7.712,7.712,0,0,0,.68.853,7.814,7.814,0,0,0,1.642,1.356A7.924,7.924,0,0,0,599.285,989h59.023a5.789,5.789,0,0,0,5.551,4.008h95.772a5.823,5.823,0,0,0,5.263-3.283l35.962-75.183a5.719,5.719,0,0,0-5.263-8.141" transform="translate(-487.82 -746.89)" fill="#ff9906"/>
          <path id="Trazado_991702" data-name="Trazado 991702" d="M592.493,1353.666a7.737,7.737,0,0,0,7.805,7.667H711.824a7.737,7.737,0,0,0,7.805-7.667Z" transform="translate(-488.222 -1115.439)" fill="#ffb948"/>
          <path id="Trazado_991703" data-name="Trazado 991703" d="M1035.935,906.4h-.77a5.823,5.823,0,0,0-5.263,3.283l-24.2,50.595-11.761,24.589a5.719,5.719,0,0,0,5.263,8.141h95.772a5.823,5.823,0,0,0,5.263-3.283l35.962-75.183a5.719,5.719,0,0,0-5.263-8.141h-95Z" transform="translate(-818.56 -746.89)" fill="#ffb948"/>
          <path id="Trazado_991704" data-name="Trazado 991704" d="M1076.224,928.438h-.7a5.3,5.3,0,0,0-4.792,2.989L1048.7,977.491l-10.708,22.387a5.207,5.207,0,0,0,4.792,7.412h87.2a5.3,5.3,0,0,0,4.792-2.989l32.742-68.451a5.207,5.207,0,0,0-4.792-7.412h-86.5Z" transform="translate(-854.898 -765.045)" fill="#ffb948"/>
          <path id="Trazado_991705" data-name="Trazado 991705" d="M1415.58,1097.047c-1.934,4.129-6.64,6.057-10.51,4.307a7.858,7.858,0,0,1-3.506-10.643c1.934-4.129,6.64-6.057,10.51-4.307a7.859,7.859,0,0,1,3.505,10.644" transform="translate(-1154.225 -894.679)" fill="#ffe8b6"/>
          <path id="Trazado_991706" data-name="Trazado 991706" d="M92.744,781.308c-7.192,0-14.428-2.11-21.881-6.353-14.275-8.126-27.689-20.732-39.87-37.468-9.573-13.153-18.493-29-26.513-47.113A51.265,51.265,0,0,1,1.7,681.1c-.985-4.251-2-9.174-1.615-13.794A19.4,19.4,0,0,1,6.1,654.672a28.64,28.64,0,0,1,13.072-7.11,32.338,32.338,0,0,1,15.161-.261c10.051,2.37,14.571,8.406,18.607,17.376a208.946,208.946,0,0,0,29.289,47.03c1.882,2.286,3.84,4.566,5.82,6.776a13.062,13.062,0,0,0,10.114,4.662c8.505,0,18.161-7.115,25.835-12.77,2.243-1.653,4.363-3.214,6.208-4.413,2.117-1.375,5.015-3.258,8.071-2.878a11.58,11.58,0,0,1,5.084,2.386c.59.416,1.205.845,1.837,1.286,5.131,3.582,11.517,8.04,14.95,12.794,3.61,5-1.991,12.352-5.337,16.746l-.468.615C147.852,745.475,140,753.2,132.4,760.666c-10.23,10.057-19.179,16.045-28.162,18.846a38.388,38.388,0,0,1-11.493,1.8m-65.326-134.3a32.932,32.932,0,0,0-8.131,1.024,28.155,28.155,0,0,0-12.852,6.986A18.931,18.931,0,0,0,.567,667.345c-.383,4.55.627,9.428,1.6,13.644a50.9,50.9,0,0,0,2.752,9.19c8.005,18.078,16.908,33.9,26.462,47.024,12.14,16.68,25.5,29.24,39.718,37.332,11.3,6.436,22.1,7.913,32.991,4.515,8.907-2.777,17.794-8.729,27.967-18.729,7.585-7.456,15.428-15.166,21.891-23.7l.468-.616c3.265-4.287,8.73-11.462,5.33-16.169-3.385-4.687-9.733-9.12-14.835-12.68-.632-.442-1.248-.871-1.839-1.288a11.182,11.182,0,0,0-4.864-2.3c-2.664-.33-5.085,1.074-7.748,2.8-1.833,1.19-3.947,2.748-6.184,4.4-11.135,8.205-26.385,19.441-36.6,8.041-1.984-2.215-3.947-4.5-5.833-6.791a209.431,209.431,0,0,1-29.357-47.139c-3.975-8.836-8.419-14.779-18.277-17.1a29.735,29.735,0,0,0-6.8-.764" transform="translate(0 -532.744)" fill="#e6f3ff"/>
          <path id="Trazado_991707" data-name="Trazado 991707" d="M145.464,765.675a27.821,27.821,0,0,1-6.408-.736c-8.854-2.087-16.82-7.538-24.355-16.664-6.551-7.934-11.9-17.587-16.625-26.1-1.26-2.273-2.451-4.42-3.643-6.5-5.954-10.4-12.322-20.761-18.479-30.778-3.683-5.991-7.491-12.186-11.176-18.334a.242.242,0,0,1,.415-.249c3.684,6.146,7.491,12.339,11.173,18.329,6.16,10.02,12.529,20.381,18.487,30.792,1.193,2.085,2.385,4.234,3.646,6.508,4.712,8.5,10.052,18.13,16.575,26.03,7.465,9.041,15.346,14.439,24.093,16.5,12.114,2.856,23.941-3.249,33.911-9.6a148.394,148.394,0,0,0,17.18-12.775,69.515,69.515,0,0,0,5.019-5c3.183-3.385,6.475-6.884,10.309-8.717a.242.242,0,0,1,.209.437c-3.752,1.794-7.012,5.26-10.165,8.612a69.984,69.984,0,0,1-5.055,5.035,148.878,148.878,0,0,1-17.236,12.817c-8.3,5.282-17.876,10.4-27.875,10.4" transform="translate(-53.35 -548.95)" fill="#e6f3ff"/>
          <path id="Trazado_991708" data-name="Trazado 991708" d="M874.111,1783.468a24.431,24.431,0,0,1-3.195-1.258c-5.544-2.652-14.21-9.889-12.234-17.377.914-3.459,4.232-5.023,7.336-5.582,10.12-1.825,19.434,4.065,25.988,11.8,1.768,2.087,3.414,5.079,2.954,8-.711,4.519-5.735,5.15-9.242,5.5a29.007,29.007,0,0,1-11.608-1.087" transform="translate(-707.329 -1449.37)" fill="#52aa77"/>
          <path id="Trazado_991709" data-name="Trazado 991709" d="M878.7,1940.467a24.219,24.219,0,0,1-3.289-.947c-5.748-2.11-15-8.485-13.671-16.132.613-3.533,3.784-5.408,6.828-6.263,9.922-2.788,19.7,2.185,26.891,9.26,1.94,1.909,3.835,4.731,3.627,7.684-.321,4.569-5.27,5.679-8.732,6.366a28.97,28.97,0,0,1-11.653.031" transform="translate(-709.981 -1579.088)" fill="#52aa77"/>
          <path id="Trazado_991710" data-name="Trazado 991710" d="M877.284,2041.227a24.385,24.385,0,0,1-3.194,1.26c-5.833,1.832-16.86,2.359-19.994-4.674-1.447-3.249.1-6.729,2.1-9.3,6.527-8.386,17.212-10.379,26.95-9.065,2.627.355,5.721,1.479,7.179,4.006,2.255,3.91-1.155,7.866-3.589,10.561a30.75,30.75,0,0,1-9.452,7.214" transform="translate(-703.319 -1663.746)" fill="#52aa77"/>
          <path id="Trazado_991711" data-name="Trazado 991711" d="M1132.495,1753.322a25.261,25.261,0,0,0,2.815-2.034c4.78-3.984,11.549-13.212,7.931-19.979-1.672-3.126-5.248-3.8-8.389-3.553-10.238.8-17.942,8.888-22.548,18.063-1.243,2.476-2.161,5.8-1.051,8.518,1.716,4.206,6.736,3.541,10.22,2.992a29.513,29.513,0,0,0,11.021-4.007" transform="translate(-915.277 -1423.656)" fill="#52aa77"/>
          <path id="Trazado_991712" data-name="Trazado 991712" d="M1111.265,1942.215a24.209,24.209,0,0,0,3.289-.947c5.748-2.109,15-8.485,13.671-16.132-.613-3.533-3.784-5.408-6.828-6.263-9.922-2.788-19.7,2.185-26.891,9.26-1.94,1.909-3.835,4.731-3.627,7.684.321,4.568,5.27,5.679,8.733,6.367a28.969,28.969,0,0,0,11.653.031" transform="translate(-898.886 -1580.528)" fill="#52aa77"/>
          <path id="Trazado_991713" data-name="Trazado 991713" d="M1125.128,2089.839a23.99,23.99,0,0,0,3.383-.444c5.973-1.226,15.984-6.15,15.694-13.918-.134-3.589-3.022-5.921-5.921-7.224-9.449-4.248-19.8-.792-27.86,5.133-2.176,1.6-4.429,4.108-4.619,7.063-.294,4.571,4.457,6.412,7.792,7.612a29.081,29.081,0,0,0,11.531,1.778" transform="translate(-911.187 -1702.713)" fill="#52aa77"/>
          <path id="Trazado_991714" data-name="Trazado 991714" d="M1008.806,1607.106a28.162,28.162,0,0,1-.644-3.542c-.739-6.391.6-17.988,7.674-20.09,3.268-.971,6.253,1.218,8.318,3.734,6.731,8.2,6.813,19.686,3.972,29.632-.767,2.683-2.328,5.726-4.925,6.828-4.018,1.7-7.137-2.511-9.244-5.5a33.213,33.213,0,0,1-5.152-11.062" transform="translate(-830.591 -1304.609)" fill="#52aa77"/>
          <path id="Trazado_991715" data-name="Trazado 991715" d="M1089.431,1877.5a.242.242,0,0,1-.242-.242v-65.375a.242.242,0,0,1,.484,0v65.375a.242.242,0,0,1-.242.242" transform="translate(-897.506 -1492.813)" fill="#176b41"/>
          <path id="Trazado_991716" data-name="Trazado 991716" d="M1069.41,1879.749a2.051,2.051,0,0,1-1.215-.61l-2.586-2.1a2.255,2.255,0,0,1-.791-.955.242.242,0,1,1,.456-.16,1.815,1.815,0,0,0,.64.74l2.586,2.1c.854.695.964.622,1.816.055.1-.065.2-.135.317-.209.946-.613,1.927-1.194,2.914-1.728a.242.242,0,1,1,.23.426c-.976.528-1.946,1.1-2.881,1.708-.113.073-.216.142-.312.206a2.286,2.286,0,0,1-1.175.527" transform="translate(-877.413 -1545.649)" fill="#176b41"/>
          <path id="Trazado_991717" data-name="Trazado 991717" d="M1062.628,2025.188a.242.242,0,0,1-.082-.47c1.419-.51,2.911-1.026,4.562-1.581a.167.167,0,0,0,.064-.032c.077-.466-2.777-2.446-3.376-2.644a.242.242,0,0,1,.153-.459c.393.13,3.7,2.118,3.7,3.107a.506.506,0,0,1-.39.488c-1.648.553-3.137,1.069-4.552,1.577a.242.242,0,0,1-.082.014" transform="translate(-875.42 -1664.498)" fill="#176b41"/>
          <path id="Trazado_991718" data-name="Trazado 991718" d="M1090.111,2152.145a.239.239,0,0,1-.152-.054.242.242,0,0,1-.036-.34,8.705,8.705,0,0,1,2.186-1.931l.02-.012a.924.924,0,0,0,.345-.292.242.242,0,0,1,.427.228,1.307,1.307,0,0,1-.518.476l-.019.012a8.2,8.2,0,0,0-2.064,1.824.241.241,0,0,1-.188.089" transform="translate(-898.067 -1771.123)" fill="#176b41"/>
          <path id="Trazado_991719" data-name="Trazado 991719" d="M417.736,1751.964H514.5a1.941,1.941,0,0,0,1.936-1.936v-86.357a1.942,1.942,0,0,0-1.936-1.936H417.736a1.942,1.942,0,0,0-1.936,1.936v86.357a1.941,1.941,0,0,0,1.936,1.936" transform="translate(-342.625 -1369.292)" fill="#ff9906"/>
          <path id="Trazado_991720" data-name="Trazado 991720" d="M220.543,1751.964h58.594a1.941,1.941,0,0,0,1.936-1.936v-86.357a1.942,1.942,0,0,0-1.936-1.936H220.543a1.942,1.942,0,0,0-1.936,1.936v86.357a1.941,1.941,0,0,0,1.936,1.936" transform="translate(-180.135 -1369.292)" fill="#ffb948"/>
          <path id="Trazado_991721" data-name="Trazado 991721" d="M649.917,1662.516l19.461,35.048a1.564,1.564,0,0,1-1.3,2.344H594.52a1.493,1.493,0,0,1-1.3-.781l-19.461-35.049a1.563,1.563,0,0,1,1.3-2.344h73.557a1.493,1.493,0,0,1,1.3.781" transform="translate(-472.616 -1369.292)" fill="#ffe8b6"/>
          <path id="Trazado_991722" data-name="Trazado 991722" d="M136.348,1662.515l-16.176,35.048c-.481,1.042.12,2.344,1.082,2.344h61.14a1.231,1.231,0,0,0,1.082-.781l16.176-35.048c.481-1.042-.12-2.344-1.082-2.344h-61.14a1.23,1.23,0,0,0-1.082.781" transform="translate(-98.884 -1369.291)" fill="#ffe8b6"/>
        </g>
      </g>
    </g>
  </g>
</svg>
